<svg xmlns="http://www.w3.org/2000/svg" xmlns:xlink="http://www.w3.org/1999/xlink" viewBox="0 0 750 500"><defs><style>.a{fill:none;}.b{clip-path:url(#a);}.c{fill:#fff;}.d{opacity:0.2;}.e{fill:#98d8e6;}</style><clipPath id="a"><rect class="a" width="750" height="500"/></clipPath></defs><g class="b"><circle class="c" cx="187.7" cy="264.69" r="35.05" transform="translate(-113.04 386.55) rotate(-76.72)"/><circle class="c" cx="98.42" cy="185.35" r="35.05" transform="translate(-102.23 123.88) rotate(-45)"/><circle class="c" cx="52.52" cy="150.3" r="35.05" transform="translate(-1.53 0.54) rotate(-0.58)"/><path class="c" d="M1.35,181.55A22.15,22.15,0,0,1-20.8,203.7a22.15,22.15,0,0,1-22.15-22.15A22.15,22.15,0,0,1-20.8,159.4,22.15,22.15,0,0,1,1.35,181.55Z"/><path class="c" d="M30.51,159.4A22.15,22.15,0,1,1,8.37,137.26,22.14,22.14,0,0,1,30.51,159.4Z"/><path class="c" d="M164.87,242.54a22.15,22.15,0,1,1-22.15-22.14A22.15,22.15,0,0,1,164.87,242.54Z"/><path class="c" d="M155.62,216.94a22.15,22.15,0,1,1-22.15-22.15A22.15,22.15,0,0,1,155.62,216.94Z"/><path class="c" d="M248.11,299.74A22.15,22.15,0,1,1,226,277.59,22.15,22.15,0,0,1,248.11,299.74Z"/><path class="c" d="M270.26,330.49a22.15,22.15,0,1,1-22.15-22.14A22.15,22.15,0,0,1,270.26,330.49Z"/><path class="c" d="M226,299.74l-48.72-43.92-24.59-16.73-25.56-22.15L98.42,185.35l-35-35-44.71,9.1-32.45,9.25-24.92,12.9L-84,159.4l-59.11,150.46L-84,413.93s328.65,3.44,358,7.1c-8-8.29-19.49-80.78-19.49-80.78Z"/><path class="c" d="M274,421c.68.7,1.34.94,2,.64C276.39,421.45,275.69,421.24,274,421Z"/><path class="c" d="M315.71,365.38a35.05,35.05,0,1,1-35-35.05A35.05,35.05,0,0,1,315.71,365.38Z"/><path class="c" d="M566.68,461.42a35,35,0,1,1-35-35.05A35.05,35.05,0,0,1,566.68,461.42Z"/><path class="c" d="M477.4,382.08a35,35,0,1,1-35-35.05A35,35,0,0,1,477.4,382.08Z"/><path class="c" d="M431.5,347a35.05,35.05,0,1,1-35.05-35A35,35,0,0,1,431.5,347Z"/><path class="c" d="M345.28,378.29a22.15,22.15,0,1,1-22.15-22.15A22.15,22.15,0,0,1,345.28,378.29Z"/><path class="c" d="M374.44,356.14A22.15,22.15,0,1,1,352.3,334,22.15,22.15,0,0,1,374.44,356.14Z"/><path class="c" d="M508.79,439.28a22.15,22.15,0,1,1-22.14-22.15A22.14,22.14,0,0,1,508.79,439.28Z"/><path class="c" d="M499.55,413.67a22.15,22.15,0,1,1-22.15-22.14A22.15,22.15,0,0,1,499.55,413.67Z"/><path class="c" d="M592,496.47a22.15,22.15,0,1,1-22.15-22.14A22.15,22.15,0,0,1,592,496.47Z"/><path class="c" d="M569.89,496.47l-48.72-43.92-24.59-16.73L471,413.67l-28.66-31.59L407.31,347l-44.71,9.11-32.45,9.24-24.92,12.91-45.3-22.15L200.82,506.6l59.11,104.07s328.65,3.43,358,7.09c-8-8.29-19.49-80.78-19.49-80.78Z"/><path class="c" d="M707.37,302.61a35.24,35.24,0,1,0,35.23-35.24A35.23,35.23,0,0,0,707.37,302.61Z"/><path class="c" d="M455.06,399.16a35.24,35.24,0,1,0,35.24-35.24A35.24,35.24,0,0,0,455.06,399.16Z"/><path class="c" d="M544.81,319.4A35.24,35.24,0,1,0,580,284.16,35.23,35.23,0,0,0,544.81,319.4Z"/><path class="c" d="M591,284.16a35.24,35.24,0,1,0,35.23-35.24A35.23,35.23,0,0,0,591,284.16Z"/><path class="c" d="M677.64,315.58a22.27,22.27,0,1,0,22.26-22.27A22.26,22.26,0,0,0,677.64,315.58Z"/><path class="c" d="M648.32,293.31a22.27,22.27,0,1,0,22.26-22.26A22.27,22.27,0,0,0,648.32,293.31Z"/><path class="c" d="M513.25,376.9a22.27,22.27,0,1,0,22.27-22.27A22.27,22.27,0,0,0,513.25,376.9Z"/><path class="c" d="M522.54,351.16a22.27,22.27,0,1,0,22.27-22.27A22.27,22.27,0,0,0,522.54,351.16Z"/><path class="c" d="M429.56,434.4a22.27,22.27,0,1,0,22.27-22.27A22.27,22.27,0,0,0,429.56,434.4Z"/><path class="c" d="M407.3,465.31a22.27,22.27,0,1,0,22.26-22.26A22.27,22.27,0,0,0,407.3,465.31Z"/><path class="c" d="M451.83,434.4l49-44.16,24.72-16.82,25.7-22.26L580,319.4l35.24-35.24,44.94,9.15,32.63,9.3,25.06,13,45.53-22.27,59.42,151.27L763.44,549.2s-330.4,3.45-359.9,7.13c8.09-8.33,19.6-81.21,19.6-81.21Z"/><path class="c" d="M661.9,370.28A35.24,35.24,0,1,0,667,320.71,35.22,35.22,0,0,0,661.9,370.28Z"/><path class="c" d="M681.21,251.77a35.23,35.23,0,1,0,5.11-49.56A35.23,35.23,0,0,0,681.21,251.77Z"/><path class="c" d="M694.79,195.32a35.24,35.24,0,1,0,5.11-49.57A35.23,35.23,0,0,0,694.79,195.32Z"/><path class="c" d="M745.07,166.24a22.26,22.26,0,1,0,3.23-31.32A22.26,22.26,0,0,0,745.07,166.24Z"/><path class="c" d="M693,316.3A22.26,22.26,0,1,0,696.23,285,22.27,22.27,0,0,0,693,316.3Z"/><path class="c" d="M684,290.46a22.26,22.26,0,1,0,3.23-31.32A22.27,22.27,0,0,0,684,290.46Z"/><path class="c" d="M664.34,413.71a22.27,22.27,0,1,0,3.23-31.33A22.26,22.26,0,0,0,664.34,413.71Z"/><path class="c" d="M666.57,451.74a22.26,22.26,0,1,0,3.23-31.32A22.26,22.26,0,0,0,666.57,451.74Z"/><path class="c" d="M681.62,399.66l10.15-65.16,8.57-28.65,5.89-33.48,2.32-42.83L713.66,180l40.65-21.25,31.18-13.37,27.62-5.75,21.28-46,141.54,79.88,19.89,118.67S741.64,503.26,721.08,524.73c1-11.56-36-75.37-36-75.37Z"/><g class="d"><path class="e" d="M103.67,276.42a35,35,0,1,0,49.13-6.56A35.05,35.05,0,0,0,103.67,276.42Z"/><circle class="e" cx="-7.1" cy="212.79" r="35.05" transform="translate(-99.02 20.75) rotate(-27.49)"/><path class="e" d="M22.8,191.53A35.05,35.05,0,1,0,71.93,185,35.05,35.05,0,0,0,22.8,191.53Z"/><path class="e" d="M72.34,268.72a22.14,22.14,0,1,0,31-4.15A22.15,22.15,0,0,0,72.34,268.72Z"/><path class="e" d="M62.61,233.41a22.15,22.15,0,1,0,31-4.15A22.15,22.15,0,0,0,62.61,233.41Z"/><path class="e" d="M-177.9,226.25l65.39-5.32,29.69,1.64,33.76-2.08,42-7.7L42,206.22,72,240.6l20.17,27,12,25.39,49.44,9.9L109.21,458.38-.95,505.18S-264.16,308.36-289.7,293.46c11.42-1.71,64.53-52.35,64.53-52.35Z"/><path class="e" d="M246.43,401.83a35,35,0,1,0,49.13-6.57A35.05,35.05,0,0,0,246.43,401.83Z"/><path class="e" d="M-11.29,325.75a35,35,0,1,0,49.13-6.57A35,35,0,0,0-11.29,325.75Z"/><path class="e" d="M107.81,316.91a35.05,35.05,0,1,0,49.13-6.56A35.05,35.05,0,0,0,107.81,316.91Z"/><path class="e" d="M165.57,316.94a35,35,0,1,0,49.13-6.57A35,35,0,0,0,165.57,316.94Z"/><path class="e" d="M215.1,394.12A22.15,22.15,0,1,0,246.15,390,22.16,22.16,0,0,0,215.1,394.12Z"/><path class="e" d="M205.37,358.82a22.15,22.15,0,1,0,31-4.15A22.16,22.16,0,0,0,205.37,358.82Z"/><path class="e" d="M48.14,343.3a22.15,22.15,0,1,0,31.05-4.15A22.15,22.15,0,0,0,48.14,343.3Z"/><path class="e" d="M71,328.57a22.15,22.15,0,1,0,31.05-4.15A22.15,22.15,0,0,0,71,328.57Z"/><path class="e" d="M-35.13,351.65l65.38-5.31L60,348l33.76-2.07,42-7.7,49.13-6.57,30,34.37L235,393.06l12,25.38,49.43,9.91L252,583.79l-110.15,46.8S-121.4,433.77-146.93,418.86c11.41-1.7,64.53-52.35,64.53-52.35Z"/></g><g class="d"><path class="e" d="M472.35,422.37a22.22,22.22,0,1,0,31.15-4.16A22.22,22.22,0,0,0,472.35,422.37Z"/><path class="e" d="M309,374.15A22.22,22.22,0,1,0,340.11,370,22.21,22.21,0,0,0,309,374.15Z"/><path class="e" d="M384.47,368.54a22.22,22.22,0,1,0,31.15-4.16A22.23,22.23,0,0,0,384.47,368.54Z"/><path class="e" d="M421.09,368.56a22.22,22.22,0,1,0,31.14-4.17A22.21,22.21,0,0,0,421.09,368.56Z"/><path class="e" d="M454.92,386.94a22.21,22.21,0,1,0,31.14-4.16A22.22,22.22,0,0,0,454.92,386.94Z"/><path class="e" d="M452.49,417.49a14,14,0,1,0,19.68-2.63A14,14,0,0,0,452.49,417.49Z"/><path class="e" d="M446.32,395.11A14,14,0,1,0,466,392.48,14,14,0,0,0,446.32,395.11Z"/><path class="e" d="M346.65,385.27a14,14,0,1,0,19.68-2.63A14,14,0,0,0,346.65,385.27Z"/><path class="e" d="M361.16,375.93a14,14,0,1,0,19.68-2.63A14,14,0,0,0,361.16,375.93Z"/><path class="e" d="M282.7,382a14,14,0,1,0,19.68-2.63A14,14,0,0,0,282.7,382Z"/><path class="e" d="M259.71,389a14,14,0,1,0,19.68-2.63A14.05,14.05,0,0,0,259.71,389Z"/><path class="e" d="M293.86,390.56l41.45-3.37,18.82,1,21.4-1.31,26.6-4.89,31.14-4.16,19,21.79,12.78,17.15,7.59,16.1L504,439.18l-28.14,98.54L406,567.39S239.17,442.62,223,433.17c7.24-1.08,40.91-33.19,40.91-33.19Z"/><path class="e" d="M223,433.17c-.61.09-1,0-1.23-.43S222,432.62,223,433.17Z"/><path class="e" d="M562.85,501.87A22.22,22.22,0,1,0,594,497.71,22.23,22.23,0,0,0,562.85,501.87Z"/><path class="e" d="M399.47,453.64a22.22,22.22,0,1,0,31.15-4.16A22.23,22.23,0,0,0,399.47,453.64Z"/><path class="e" d="M475,448a22.22,22.22,0,1,0,31.15-4.16A22.22,22.22,0,0,0,475,448Z"/><path class="e" d="M511.59,448.06a22.22,22.22,0,1,0,31.15-4.17A22.21,22.21,0,0,0,511.59,448.06Z"/><path class="e" d="M543,497a14,14,0,1,0,19.68-2.63A14,14,0,0,0,543,497Z"/><path class="e" d="M536.83,474.61A14,14,0,1,0,556.51,472,14,14,0,0,0,536.83,474.61Z"/><path class="e" d="M437.15,464.77a14,14,0,1,0,19.68-2.63A14,14,0,0,0,437.15,464.77Z"/><path class="e" d="M451.66,455.43a14,14,0,1,0,19.68-2.63A14,14,0,0,0,451.66,455.43Z"/><path class="e" d="M373.21,461.54a14,14,0,1,0,19.68-2.63A14,14,0,0,0,373.21,461.54Z"/><path class="e" d="M350.21,468.5a14,14,0,1,0,19.68-2.63A14,14,0,0,0,350.21,468.5Z"/><path class="e" d="M384.36,470.06l41.45-3.37,18.83,1,21.4-1.32,26.59-4.88,31.15-4.16,19,21.79,12.79,17.15,7.59,16.09,31.34,6.28-28.14,98.54-69.83,29.67S329.67,522.12,313.48,512.67c7.24-1.08,40.91-33.19,40.91-33.19Z"/></g><g class="d"><path class="e" d="M695.67,316.26a35,35,0,1,0,7.76-48.95A35.05,35.05,0,0,0,695.67,316.26Z"/><path class="e" d="M549,541.44a35,35,0,1,0,7.77-49A35.06,35.06,0,0,0,549,541.44Z"/><path class="e" d="M574.64,424.79a35,35,0,1,0,7.76-49A35,35,0,0,0,574.64,424.79Z"/><path class="e" d="M591.19,369.45A35,35,0,1,0,599,320.5,35,35,0,0,0,591.19,369.45Z"/><path class="e" d="M679.32,344.08a22.15,22.15,0,1,0,4.91-30.93A22.15,22.15,0,0,0,679.32,344.08Z"/><path class="e" d="M642.7,343.3a22.15,22.15,0,1,0,4.91-30.94A22.16,22.16,0,0,0,642.7,343.3Z"/><path class="e" d="M582.84,489.51a22.15,22.15,0,1,0,4.91-30.93A22.16,22.16,0,0,0,582.84,489.51Z"/><path class="e" d="M575.28,463.36a22.14,22.14,0,1,0,4.91-30.93A22.14,22.14,0,0,0,575.28,463.36Z"/><path class="e" d="M567,571.69l13.62-64.17,10.07-28,7.67-33,4.63-42.4,7.76-48.95,41.52-18.9L684,324.75l27.75-4.21L735.36,276,871.6,363,884.92,482S621,677.85,599.42,698.05c1.64-11.42-31.7-76.81-31.7-76.81Z"/><path class="e" d="M710,440.53a35,35,0,1,0,7.76-48.95A35.05,35.05,0,0,0,710,440.53Z"/><path class="e" d="M735.65,323.88a35,35,0,1,0,7.77-49A35,35,0,0,0,735.65,323.88Z"/><path class="e" d="M752.2,268.54a35,35,0,1,0,7.76-49A35,35,0,0,0,752.2,268.54Z"/><path class="e" d="M743.86,388.6a22.15,22.15,0,1,0,4.9-30.93A22.14,22.14,0,0,0,743.86,388.6Z"/><path class="e" d="M736.29,362.45a22.14,22.14,0,1,0,4.91-30.93A22.15,22.15,0,0,0,736.29,362.45Z"/><path class="e" d="M710.11,483.79a22.14,22.14,0,1,0,4.9-30.93A22.14,22.14,0,0,0,710.11,483.79Z"/><path class="e" d="M710.26,521.69a22.14,22.14,0,1,0,4.9-30.93A22.14,22.14,0,0,0,710.26,521.69Z"/><path class="e" d="M728,470.78l13.61-64.17,10.07-28,7.67-32.94L764,303.28l7.77-48.95,41.52-18.9L845,223.84l27.75-4.21,23.64-44.53,136.23,87,13.32,119S782,576.94,760.43,597.14c1.64-11.43-31.69-76.81-31.69-76.81Z"/></g></g></svg>