<svg xmlns="http://www.w3.org/2000/svg" xmlns:xlink="http://www.w3.org/1999/xlink" viewBox="0 0 750 500"><defs><style>.a{fill:none;}.b{isolation:isolate;}.c{clip-path:url(#a);}.d{fill:#a1b5ca;}.e{clip-path:url(#b);}.f{fill:#c1c5cd;}.g{clip-path:url(#c);}.h{clip-path:url(#d);}.i{fill:#cfdd61;}.j{clip-path:url(#e);}.k{fill:#ffe799;}.l{mix-blend-mode:multiply;opacity:0.4;}.m{clip-path:url(#f);}.n{fill:#8ab304;}.o{fill:#698a08;}.p{clip-path:url(#g);}.q{clip-path:url(#h);}.r{clip-path:url(#i);}.s{clip-path:url(#j);}.t{clip-path:url(#k);}.u{clip-path:url(#l);}.v{clip-path:url(#m);}.w{fill:#acc436;}.x{clip-path:url(#n);}.y{fill:#f3d564;}.z{clip-path:url(#o);}.aa{fill:#6c8c03;}.ab{fill:#4c6406;}.ac{clip-path:url(#p);}.ad{clip-path:url(#q);}.ae{fill:#958a20;}.af{opacity:0.6;}.ag{fill:#5c670f;}.ah{fill:#6b7c0c;}.ai{clip-path:url(#r);}.aj{fill:#d3b146;}.ak{fill:#394004;}</style><clipPath id="a"><rect class="a" width="750" height="500"/></clipPath><clipPath id="b"><path class="a" d="M231.46,382.28c-10.09-11.15-19.15-23.16-28.65-34.8-4.18-5.1-7.38-11.14-12.44-15.47-4.57-3.91-9.84-4.36-15.56-4.35-6.36,0-11.53-2.56-16-6.92-3.51-3.43-6.45-7.47-10.43-10.4-4.32-3.2-9.35-4.55-14.64-5.12a17.77,17.77,0,0,1-9.75-3.79c-2.59-2.07-4-5.11-5.59-7.91-2.91-5-8.37-8.27-13-11.56-5.33-3.82-9.61-7.95-12.87-13.7-6.26-11-11.09-22.82-17.48-33.78a.51.51,0,0,0-.88,0c-4.53,6.59-7.49,15.93-14.74,20.12-2.42,1.4-6.42.67-9,.15-1.89-.39-7.45-1.9-4.64-4.53.49-.46-.22-1.12-.72-.72C39.08,254.21,34,260,28.52,265.38c-5.63,5.5-12.62,12.08-20.79,13.1-2.59.32-5-.61-7.49-1.08a12.56,12.56,0,0,0-7.59,1.21C-11,280.23-14,283-17.27,285.26c-4.2,3-8.18,3.17-12.25-.21a.53.53,0,0,0-.62-.08L-96.2,319.74l-3.23,1.7a.51.51,0,0,0-.18.7c13.43,21.11,27.08,42.1,41.17,62.77,4.12,6.06,8.29,12.08,12.61,18a94.64,94.64,0,0,0,8.45,10.58,5.43,5.43,0,0,0,3.75,1.7c2.92.43,5.82.94,8.72,1.45,27.57,4.81,55.06,10,82.56,15.2q46.82,8.79,93.56,17.84c7.91,1.54,15.84,3,23.7,4.76,1.91.43,2.88.55,4.57-.78,4.07-3.21,7.33-7.62,10.53-11.65,14.92-18.85,28.36-39,41.53-59.11A.51.51,0,0,0,231.46,382.28Z"/></clipPath><clipPath id="c"><path class="a" d="M420.35,464.17c-10.1-11.15-19.16-23.16-28.66-34.8-4.18-5.1-7.38-11.13-12.44-15.47-4.57-3.91-9.84-4.36-15.56-4.35-6.36,0-11.53-2.55-16-6.91-3.51-3.43-6.45-7.47-10.43-10.41-4.32-3.2-9.35-4.54-14.63-5.11a17.82,17.82,0,0,1-9.76-3.8c-2.59-2.07-3.95-5.11-5.59-7.91-2.91-5-8.37-8.26-13-11.56-16.72-12-25.25-21.84-35.71-40.28-4.61,2.56-6,8.25-7.36,14.06-2.53-1.82-6.59-2.57-8.81-5.87-6.28,12.34-18.31,28.05-29.68,10.2-10.25,20.46-26.17,14.64-41.14,25.19-4.2,3-8.17,3.17-12.25-.21a.54.54,0,0,0-.62-.08L92.68,401.64l-3.23,1.7a.51.51,0,0,0-.18.7c13.43,21.1,27.08,42.09,41.17,62.77,4.12,6.05,8.29,12.08,12.62,18a92.52,92.52,0,0,0,8.45,10.59,5.34,5.34,0,0,0,3.74,1.69c2.92.43,5.82.95,8.72,1.46,27.57,4.8,55.06,10,82.56,15.19q46.82,8.79,93.57,17.84c7.9,1.54,15.83,3,23.69,4.77,1.92.42,2.88.54,4.57-.79,4.07-3.21,7.33-7.62,10.53-11.65,14.93-18.85,28.36-39,41.54-59.11A.52.52,0,0,0,420.35,464.17Z"/></clipPath><clipPath id="d"><path class="a" d="M757.55,347.13c-3.56-1.18-3.56-4.75-7.12-8.31a110.79,110.79,0,0,0-25.77-29c1.54,15.43-8.82-.59-11.52-5.25-5-8.6-9.1-18-17.27-24.24-9.7,10.74-12.7,25.44-20.1,37.58-2.11,3.47-23.24,22.53-20,24.6-2.84-1.79-4.75-4.84-6.89-7.41-9.21,6.77-14.28,19.51-19.92,29.06-1.38-3.7-2.2-7.75-3.41-11.51-13.29,4.08-18.64,24.06-29.42,31.88-12.91,9.36-31.15-3.07-42.83,10.07-11.87,15.44,15.43,20.19,24.93,21.38,28.5,4.75,57,1.18,85.49,1.18,21.37,1.19,42.74,3.57,62.92,2.38,16.62,0,32.06-1.19,48.68-1.19,9.5,0,27.31,2.38,32.06-10.68,7.12-22.56-33.25-48.68-48.68-59.37"/></clipPath><clipPath id="e"><path class="a" d="M201.24,350.85C121.87,331.91,34.56,320.79-50.9,313.21c-128.95-11.45-261-7-385.31,13.2l-72.16,182.23c0,22,980.94,0,980.94,0v-94.2C381,394.77,291.46,372.38,201.24,350.85Z"/></clipPath><clipPath id="f"><path class="a" d="M565.69,390.77a42.32,42.32,0,0,1-4.58-6,34.12,34.12,0,0,1-2.2-3.56,22.7,22.7,0,0,0,2.8,1.67,9.19,9.19,0,0,0,3.65,1.2c.28,0,.38-.64.14-.86a26.74,26.74,0,0,1-5-6.14c-.78-1.3-1.53-2.69-2.22-4.13-.19-.39-.35-.81-.51-1.24,1.36,1.21,2.73,2.47,4.34,2.1.22,0,.23-.56.06-.71a29.89,29.89,0,0,1-5.06-6.25c.72.47,1.47.86,2.19,1.26a9.33,9.33,0,0,0,3.65,1.19c.28,0,.38-.64.14-.86a26.53,26.53,0,0,1-5-6.14c-.77-1.3-1.53-2.68-2.22-4.12-.18-.39-.35-.82-.51-1.24,1.36,1.2,2.73,2.46,4.34,2.09.22-.05.23-.56.06-.71a35.52,35.52,0,0,1-8.12-12.14c0-.11-.08-.18-.15-.18s-.14.07-.16.18a35.24,35.24,0,0,1-8.12,12.14c-.16.15-.15.66.06.71,1.62.37,3-.9,4.36-2.11-.14.38-.29.75-.45,1.09-.68,1.46-1.45,2.83-2.22,4.16a26,26,0,0,1-5.09,6.27c-.24.22-.14.88.15.86a9,9,0,0,0,3.52-1.13c.76-.4,1.55-.81,2.31-1.31a30.08,30.08,0,0,1-5.06,6.24c-.16.15-.15.66.06.71,1.62.37,3-.9,4.36-2.11-.14.37-.29.74-.45,1.09-.68,1.45-1.45,2.82-2.22,4.15a26.06,26.06,0,0,1-5.09,6.28c-.24.22-.14.88.15.86a9.3,9.3,0,0,0,3.52-1.13,22.49,22.49,0,0,0,2.91-1.73,38.83,38.83,0,0,1-2.09,3.42,42.43,42.43,0,0,1-4.67,6.17c-.29.29-.09.92.21.84a18.38,18.38,0,0,0,4.15-1.8,15,15,0,0,0,3.39-2.59c-.12.37-.25.74-.37,1.1a13.31,13.31,0,0,1-1.45,3.21c-.22.33,0,.88.28.78a10,10,0,0,0,3.2-2.18,18.75,18.75,0,0,0,2.39-2.72l4.55-.4a19.22,19.22,0,0,0,2.68,3.12,9.72,9.72,0,0,0,3.19,2.18c.27.1.5-.45.28-.78a12.57,12.57,0,0,1-1.39-3l-.42-1.25a15.73,15.73,0,0,0,3.38,2.58,17.94,17.94,0,0,0,4.15,1.8C565.77,391.69,566,391.06,565.69,390.77Z"/></clipPath><clipPath id="g"><path class="a" d="M443.87,397.42a28.55,28.55,0,0,1-3.1-4.08,26.43,26.43,0,0,1-1.48-2.4,15.36,15.36,0,0,0,1.89,1.12,6.05,6.05,0,0,0,2.46.81c.19,0,.26-.43.1-.58a17.82,17.82,0,0,1-3.38-4.14c-.53-.88-1-1.82-1.5-2.79-.13-.26-.24-.55-.35-.84.92.82,1.85,1.67,2.94,1.42.14,0,.15-.38,0-.48a20.26,20.26,0,0,1-3.42-4.22c.49.32,1,.59,1.48.85a6.21,6.21,0,0,0,2.46.81c.19,0,.26-.43.1-.58a17.68,17.68,0,0,1-3.38-4.15c-.53-.88-1-1.81-1.5-2.78-.13-.27-.24-.55-.35-.84.92.81,1.85,1.67,2.93,1.41.15,0,.15-.37,0-.48a23.94,23.94,0,0,1-5.48-8.19c0-.07-.06-.12-.1-.12a.13.13,0,0,0-.11.12,23.94,23.94,0,0,1-5.48,8.19c-.11.11-.1.45,0,.48,1.09.26,2-.6,2.94-1.42-.09.26-.19.5-.3.74-.46,1-1,1.9-1.5,2.8a17.72,17.72,0,0,1-3.43,4.24c-.16.15-.1.59.09.58a6.05,6.05,0,0,0,2.38-.77,14.35,14.35,0,0,0,1.56-.88,20.15,20.15,0,0,1-3.41,4.21c-.11.1-.1.45,0,.48,1.09.25,2-.61,2.94-1.42-.1.25-.19.5-.3.73-.46,1-1,1.91-1.5,2.8a17.13,17.13,0,0,1-3.44,4.24c-.16.15-.09.6.1.58a6.2,6.2,0,0,0,2.38-.76,14.27,14.27,0,0,0,2-1.17,23.65,23.65,0,0,1-1.41,2.31,27.92,27.92,0,0,1-3.15,4.17c-.2.19-.06.62.15.56a12,12,0,0,0,2.79-1.21A9.76,9.76,0,0,0,429.9,395c-.08.25-.16.5-.25.74a9.2,9.2,0,0,1-1,2.17c-.15.22,0,.59.18.52A6.56,6.56,0,0,0,431,397a13.23,13.23,0,0,0,1.62-1.84l3.07-.27a13,13,0,0,0,1.81,2.11,6.42,6.42,0,0,0,2.15,1.46c.18.07.34-.3.19-.52a8.12,8.12,0,0,1-.94-2.06c-.1-.28-.19-.56-.28-.84a10.46,10.46,0,0,0,2.28,1.74,11.81,11.81,0,0,0,2.8,1.21C443.92,398,444.06,397.61,443.87,397.42Z"/></clipPath><clipPath id="h"><path class="a" d="M422.83,403.57a26,26,0,0,1-2.76-3.63,22.14,22.14,0,0,1-1.31-2.14,14.66,14.66,0,0,0,1.68,1,5.47,5.47,0,0,0,2.19.71c.17,0,.23-.38.08-.51a15.94,15.94,0,0,1-3-3.69,27.73,27.73,0,0,1-1.34-2.48c-.11-.23-.21-.49-.31-.74.82.72,1.65,1.48,2.61,1.26.13,0,.14-.34,0-.43a17.71,17.71,0,0,1-3-3.75c.43.28.88.52,1.31.75a5.49,5.49,0,0,0,2.19.72c.18,0,.24-.38.09-.51a16.23,16.23,0,0,1-3-3.69c-.46-.79-.92-1.62-1.33-2.48-.11-.24-.21-.49-.31-.75.82.73,1.64,1.48,2.61,1.26.13,0,.13-.33,0-.43a21.2,21.2,0,0,1-4.87-7.29c0-.06-.05-.11-.09-.11s-.09.05-.1.11a21.2,21.2,0,0,1-4.87,7.29c-.1.1-.1.4,0,.43,1,.22,1.8-.54,2.62-1.27-.09.23-.17.45-.27.66-.41.87-.87,1.69-1.33,2.49a15.61,15.61,0,0,1-3.06,3.78c-.14.13-.08.52.09.51a5.44,5.44,0,0,0,2.11-.68c.46-.24.93-.49,1.39-.79a18,18,0,0,1-3,3.75c-.1.09-.09.4,0,.43,1,.22,1.8-.55,2.61-1.27-.08.22-.17.45-.26.65-.41.88-.87,1.7-1.34,2.5a15.72,15.72,0,0,1-3.05,3.77c-.15.13-.09.53.08.51a5.43,5.43,0,0,0,2.12-.68,13,13,0,0,0,1.74-1,22.8,22.8,0,0,1-1.25,2.05,24.05,24.05,0,0,1-2.81,3.71c-.17.17-.05.55.14.5a10.62,10.62,0,0,0,2.49-1.08,9.05,9.05,0,0,0,2-1.55l-.22.66a8.32,8.32,0,0,1-.87,1.93c-.13.19,0,.52.17.46a5.83,5.83,0,0,0,1.92-1.3,12.1,12.1,0,0,0,1.43-1.64l2.74-.24a12.45,12.45,0,0,0,1.6,1.88,5.94,5.94,0,0,0,1.92,1.3c.16.06.3-.27.17-.46a7.79,7.79,0,0,1-.84-1.84l-.24-.75a9.13,9.13,0,0,0,2,1.55,10.38,10.38,0,0,0,2.48,1.08C422.88,404.12,423,403.74,422.83,403.57Z"/></clipPath><clipPath id="i"><path class="a" d="M454.66,394.13a19,19,0,0,1-2.05-2.69,17.42,17.42,0,0,1-1-1.6,10.33,10.33,0,0,0,1.25.75,4.08,4.08,0,0,0,1.63.54c.13,0,.18-.29.07-.39a11.87,11.87,0,0,1-2.24-2.74,20.09,20.09,0,0,1-1-1.84,5.48,5.48,0,0,1-.23-.56c.6.54,1.22,1.1,1.94.94.09,0,.1-.25,0-.32a13.9,13.9,0,0,1-2.26-2.79c.33.21.66.39,1,.56a4,4,0,0,0,1.63.53c.13,0,.17-.28.07-.38a11.87,11.87,0,0,1-2.24-2.74,20.09,20.09,0,0,1-1-1.84A5.48,5.48,0,0,1,450,379c.6.54,1.22,1.1,1.94.94.09,0,.1-.25,0-.32a15.73,15.73,0,0,1-3.62-5.43s0-.08-.07-.08a.09.09,0,0,0-.07.08,15.89,15.89,0,0,1-3.63,5.43c-.07.07-.07.29,0,.32.72.16,1.33-.41,1.94-.95a3.58,3.58,0,0,1-.2.49c-.3.65-.64,1.26-1,1.86a11.67,11.67,0,0,1-2.27,2.8c-.11.1-.06.39.06.38a3.94,3.94,0,0,0,1.58-.5,10.83,10.83,0,0,0,1-.59,13.3,13.3,0,0,1-2.26,2.79c-.07.07-.07.3,0,.32.73.17,1.34-.4,1.95-.94a4,4,0,0,1-.2.48c-.3.65-.64,1.26-1,1.86a11.67,11.67,0,0,1-2.27,2.8c-.11.1-.07.39.06.39a4.12,4.12,0,0,0,1.58-.51,8.61,8.61,0,0,0,1.29-.77,16.36,16.36,0,0,1-.93,1.53,18.05,18.05,0,0,1-2.09,2.75c-.12.13,0,.41.1.38a8.13,8.13,0,0,0,1.85-.81,6.22,6.22,0,0,0,1.52-1.15c-.06.16-.11.33-.17.49a6.54,6.54,0,0,1-.64,1.44c-.1.14,0,.38.12.34a4.48,4.48,0,0,0,1.43-1,9.16,9.16,0,0,0,1.07-1.22l2-.17a9.68,9.68,0,0,0,1.2,1.39,4.29,4.29,0,0,0,1.42,1c.12,0,.23-.2.13-.34a6,6,0,0,1-.63-1.37l-.18-.56a6.65,6.65,0,0,0,1.51,1.15,7.72,7.72,0,0,0,1.85.81C454.7,394.54,454.79,394.26,454.66,394.13Z"/></clipPath><clipPath id="j"><path class="a" d="M401.26,404.49a18.57,18.57,0,0,1-2.05-2.7,17.23,17.23,0,0,1-1-1.59,11.81,11.81,0,0,0,1.25.75,4.17,4.17,0,0,0,1.63.53c.13,0,.18-.28.07-.38a11.87,11.87,0,0,1-2.24-2.74c-.35-.59-.69-1.21-1-1.85a4.53,4.53,0,0,1-.23-.55c.61.54,1.22,1.1,1.94.93.09,0,.1-.25,0-.32a13.55,13.55,0,0,1-2.26-2.78c.33.21.66.38,1,.56a4.17,4.17,0,0,0,1.63.53c.13,0,.17-.28.06-.38a12,12,0,0,1-2.23-2.75,20.09,20.09,0,0,1-1-1.84,4.53,4.53,0,0,1-.23-.55c.61.53,1.22,1.1,1.94.93.09,0,.1-.25,0-.32a15.78,15.78,0,0,1-3.62-5.42c0-.05,0-.08-.07-.08a.08.08,0,0,0-.07.08,15.94,15.94,0,0,1-3.63,5.42c-.07.07-.07.3,0,.32.72.17,1.34-.4,1.94-.94a4.19,4.19,0,0,1-.2.49,20.28,20.28,0,0,1-1,1.85,11.54,11.54,0,0,1-2.27,2.81c-.11.1-.06.39.06.38a4.28,4.28,0,0,0,1.58-.5c.34-.18.69-.37,1-.59a13.23,13.23,0,0,1-2.26,2.78c-.07.07-.07.3,0,.32.72.17,1.33-.4,1.94-.94a4.19,4.19,0,0,1-.2.49,20.28,20.28,0,0,1-1,1.85,11.54,11.54,0,0,1-2.27,2.81c-.11.1-.06.39.06.38a4.28,4.28,0,0,0,1.58-.5,9.54,9.54,0,0,0,1.29-.77,16.19,16.19,0,0,1-.93,1.52,17.67,17.67,0,0,1-2.09,2.76c-.12.13,0,.41.1.37a7.68,7.68,0,0,0,1.85-.8A6.53,6.53,0,0,0,392,402.9l-.17.5a6.46,6.46,0,0,1-.64,1.43c-.1.15,0,.39.12.34a4.29,4.29,0,0,0,1.43-1,9.16,9.16,0,0,0,1.07-1.22l2-.18a9.18,9.18,0,0,0,1.2,1.4,4.19,4.19,0,0,0,1.43,1c.11.05.22-.19.12-.34a5.38,5.38,0,0,1-.62-1.37c-.07-.18-.13-.37-.19-.55a7,7,0,0,0,1.51,1.15,7.85,7.85,0,0,0,1.85.8C401.3,404.9,401.39,404.62,401.26,404.49Z"/></clipPath><clipPath id="k"><path class="a" d="M607.12,382.79a18.57,18.57,0,0,1-2-2.7,15.3,15.3,0,0,1-1-1.59,10.88,10.88,0,0,0,1.25.75,4.17,4.17,0,0,0,1.63.53c.13,0,.17-.28.06-.38a12.11,12.11,0,0,1-2.23-2.74c-.35-.59-.69-1.2-1-1.85-.08-.17-.15-.36-.22-.55.6.54,1.22,1.1,1.94.93.09,0,.1-.25,0-.31a13.56,13.56,0,0,1-2.26-2.79c.32.21.65.38,1,.56a4.17,4.17,0,0,0,1.63.53c.13,0,.17-.28.06-.38a12.14,12.14,0,0,1-2.24-2.74c-.34-.59-.68-1.21-1-1.85-.08-.17-.15-.36-.22-.55.6.54,1.21,1.1,1.93.93.1,0,.1-.25,0-.32a15.94,15.94,0,0,1-3.63-5.42.08.08,0,0,0-.07-.08s-.06,0-.06.08a15.94,15.94,0,0,1-3.63,5.42c-.08.07-.07.3,0,.32.73.17,1.34-.4,1.95-.94-.06.17-.13.33-.2.49-.3.65-.65,1.26-1,1.85a11.54,11.54,0,0,1-2.27,2.81c-.11.1-.07.39.06.38a4.18,4.18,0,0,0,1.57-.5c.35-.18.7-.37,1-.59a13.62,13.62,0,0,1-2.26,2.79c-.08.06-.07.29,0,.31.72.17,1.34-.4,2-.94-.06.17-.13.33-.2.49-.31.65-.65,1.26-1,1.85a11.77,11.77,0,0,1-2.27,2.81c-.11.1-.07.39.06.38a4.18,4.18,0,0,0,1.57-.5,9.64,9.64,0,0,0,1.3-.77,16.36,16.36,0,0,1-.93,1.53,18.72,18.72,0,0,1-2.09,2.75c-.13.13,0,.41.1.38a8.13,8.13,0,0,0,1.85-.81,6.72,6.72,0,0,0,1.51-1.15c0,.16-.11.32-.16.49a6,6,0,0,1-.65,1.43c-.1.15,0,.39.13.35a4.59,4.59,0,0,0,1.43-1,9.93,9.93,0,0,0,1.07-1.22l2-.18a8.68,8.68,0,0,0,1.19,1.4,4.43,4.43,0,0,0,1.43,1c.12,0,.22-.2.13-.35a5.32,5.32,0,0,1-.63-1.36l-.18-.56a6.72,6.72,0,0,0,1.51,1.15,8.13,8.13,0,0,0,1.85.81C607.16,383.2,607.25,382.92,607.12,382.79Z"/></clipPath><clipPath id="l"><path class="a" d="M740.29,381.25a18.57,18.57,0,0,1-2-2.7,17.23,17.23,0,0,1-1-1.59,11.81,11.81,0,0,0,1.25.75,4.17,4.17,0,0,0,1.63.53c.13,0,.17-.28.07-.38a11.87,11.87,0,0,1-2.24-2.74,20.28,20.28,0,0,1-1-1.85,4.53,4.53,0,0,1-.23-.55c.6.54,1.22,1.1,1.94.93.09,0,.1-.25,0-.31a13.9,13.9,0,0,1-2.26-2.79c.32.21.66.38,1,.56a4.17,4.17,0,0,0,1.63.53c.13,0,.17-.28.06-.38a12.11,12.11,0,0,1-2.23-2.74c-.35-.59-.69-1.21-1-1.85a4.53,4.53,0,0,1-.23-.55c.6.54,1.22,1.1,1.94.93.09,0,.1-.25,0-.32a15.94,15.94,0,0,1-3.63-5.42c0-.05,0-.08-.06-.08a.08.08,0,0,0-.07.08,15.94,15.94,0,0,1-3.63,5.42c-.07.07-.07.3,0,.32.72.17,1.33-.4,1.94-.94-.06.17-.13.33-.2.49a20.28,20.28,0,0,1-1,1.85,11.54,11.54,0,0,1-2.27,2.81c-.11.1-.07.39.06.38a4.28,4.28,0,0,0,1.58-.5c.34-.18.69-.37,1-.59a13.3,13.3,0,0,1-2.26,2.79c-.08.06-.07.29,0,.31.73.17,1.34-.4,2-.94-.06.17-.13.33-.2.49a20.28,20.28,0,0,1-1,1.85,11.54,11.54,0,0,1-2.27,2.81c-.11.1-.07.39.06.38a4.1,4.1,0,0,0,1.58-.5,9.54,9.54,0,0,0,1.29-.77,16.36,16.36,0,0,1-.93,1.53,18.05,18.05,0,0,1-2.09,2.75c-.13.13,0,.41.1.38a8.13,8.13,0,0,0,1.85-.81,7,7,0,0,0,1.52-1.15c-.06.16-.11.33-.17.49a6.46,6.46,0,0,1-.64,1.43c-.1.15,0,.39.12.35a4.48,4.48,0,0,0,1.43-1,9.16,9.16,0,0,0,1.07-1.22l2-.18a8.25,8.25,0,0,0,1.2,1.4,4.29,4.29,0,0,0,1.42,1c.12,0,.23-.2.13-.35a5.69,5.69,0,0,1-.63-1.36l-.18-.56a6.72,6.72,0,0,0,1.51,1.15,8.13,8.13,0,0,0,1.85.81C740.33,381.66,740.42,381.38,740.29,381.25Z"/></clipPath><clipPath id="m"><path class="a" d="M582.67,387.87a29.76,29.76,0,0,1-3.09-4.07,23.42,23.42,0,0,1-1.48-2.41,15.46,15.46,0,0,0,1.89,1.13,6,6,0,0,0,2.46.8c.19,0,.26-.43.09-.57a18.41,18.41,0,0,1-3.38-4.15c-.52-.88-1-1.81-1.49-2.78-.13-.27-.24-.55-.35-.84.92.81,1.84,1.66,2.93,1.41.14,0,.15-.37,0-.48a19.93,19.93,0,0,1-3.42-4.21c.49.32,1,.58,1.48.84a6.05,6.05,0,0,0,2.46.81c.2,0,.27-.43.1-.58a17.87,17.87,0,0,1-3.38-4.14c-.52-.88-1-1.82-1.5-2.79a7,7,0,0,1-.34-.84c.91.82,1.84,1.67,2.93,1.42.14,0,.15-.38,0-.48a24,24,0,0,1-5.49-8.2.11.11,0,0,0-.1-.12c-.05,0-.09.05-.1.12a24,24,0,0,1-5.48,8.2c-.11.1-.11.44,0,.48,1.09.25,2-.61,2.94-1.42-.1.25-.2.5-.3.73-.46,1-1,1.91-1.5,2.8a17.36,17.36,0,0,1-3.44,4.24c-.16.15-.09.6.1.58a6.31,6.31,0,0,0,2.38-.76c.51-.27,1-.55,1.56-.89a19.93,19.93,0,0,1-3.42,4.21c-.11.11-.1.45,0,.48,1.09.26,2-.61,2.94-1.42-.09.25-.19.5-.3.74-.46,1-1,1.9-1.5,2.8a17.72,17.72,0,0,1-3.43,4.24c-.16.14-.1.59.1.57a5.88,5.88,0,0,0,2.37-.76,13.71,13.71,0,0,0,2-1.16c-.45.81-.92,1.59-1.41,2.31a29.11,29.11,0,0,1-3.16,4.16c-.19.19-.06.62.15.57a12.73,12.73,0,0,0,2.8-1.22,10.43,10.43,0,0,0,2.29-1.74c-.09.24-.17.49-.25.74a9.59,9.59,0,0,1-1,2.17c-.15.22,0,.58.19.52a6.71,6.71,0,0,0,2.15-1.47,13.23,13.23,0,0,0,1.62-1.84l3.07-.27a13,13,0,0,0,1.81,2.11,6.49,6.49,0,0,0,2.16,1.47c.18.06.33-.3.18-.52a9.16,9.16,0,0,1-.94-2.07c-.09-.28-.18-.56-.28-.84a10.2,10.2,0,0,0,2.29,1.74,12.2,12.2,0,0,0,2.79,1.22C582.73,388.49,582.87,388.06,582.67,387.87Z"/></clipPath><clipPath id="n"><path class="a" d="M274.15,422.28c79.37-18.95,166.69-30.06,252.15-37.65,129-11.44,261-7,385.31,13.21l72.15,182.23c0,22-980.93,0-980.93,0v-94.2C94.35,466.2,183.94,443.81,274.15,422.28Z"/></clipPath><clipPath id="o"><path class="a" d="M677.41,501.06c-5.93-5.77-10.88-13.84-16.06-21.18a125.54,125.54,0,0,1-7.7-12.51,80,80,0,0,0,9.82,5.87,32,32,0,0,0,12.78,4.19c1,.07,1.36-2.24.51-3a93.52,93.52,0,0,1-17.57-21.54c-2.73-4.58-5.39-9.43-7.79-14.47-.66-1.38-1.24-2.86-1.8-4.36,4.77,4.22,9.59,8.65,15.24,7.34.75-.17.78-1.95.2-2.49A105.15,105.15,0,0,1,647.28,417c2.53,1.65,5.15,3,7.7,4.4a32,32,0,0,0,12.79,4.19c1,.07,1.35-2.23.5-3a93.49,93.49,0,0,1-17.56-21.54c-2.74-4.58-5.4-9.43-7.8-14.47-.65-1.38-1.23-2.86-1.8-4.36,4.77,4.22,9.59,8.65,15.24,7.34.75-.17.78-2,.2-2.49-11.33-10.39-21-25.31-28.48-42.59-.06-.37-.29-.63-.54-.62s-.48.25-.54.62c-7.43,17.28-17.14,32.2-28.48,42.59-.58.53-.55,2.32.2,2.49,5.67,1.31,10.5-3.15,15.29-7.39-.5,1.32-1,2.61-1.58,3.83-2.39,5.1-5.08,9.9-7.78,14.56a91.43,91.43,0,0,1-17.85,22c-.85.77-.49,3.07.5,3a31.84,31.84,0,0,0,12.36-4c2.68-1.4,5.45-2.86,8.11-4.6A104.56,104.56,0,0,1,590,438.91c-.58.54-.55,2.32.2,2.49,5.67,1.31,10.51-3.15,15.29-7.39-.49,1.32-1,2.61-1.57,3.83-2.4,5.09-5.08,9.89-7.78,14.56a91.45,91.45,0,0,1-17.86,22c-.84.76-.49,3.07.51,3a31.92,31.92,0,0,0,12.36-4,74.24,74.24,0,0,0,10.2-6,138.34,138.34,0,0,1-7.33,12c-5.22,7.57-10.36,15.78-16.39,21.64-1,1-.31,3.22.76,2.93A63.43,63.43,0,0,0,593,497.67a51.82,51.82,0,0,0,11.89-9.06c-.43,1.29-.86,2.58-1.29,3.85a47.54,47.54,0,0,1-5.08,11.27c-.78,1.15,0,3,1,2.71,4-1.49,7.71-4.29,11.22-7.62a68.44,68.44,0,0,0,8.4-9.56l16-1.39a70.47,70.47,0,0,0,9.37,10.95,33.9,33.9,0,0,0,11.22,7.62c.93.34,1.75-1.56,1-2.71A44.36,44.36,0,0,1,651.7,493c-.49-1.46-1-2.92-1.45-4.38a53,53,0,0,0,11.86,9A62.15,62.15,0,0,0,676.65,504C677.72,504.28,678.43,502.05,677.41,501.06Z"/></clipPath><clipPath id="p"><path class="a" d="M719.91,494.42c-3.61-3.51-6.62-8.42-9.78-12.89a76.13,76.13,0,0,1-4.68-7.62,48.1,48.1,0,0,0,6,3.58,19.59,19.59,0,0,0,7.79,2.55c.6,0,.82-1.37.3-1.83a57,57,0,0,1-10.69-13.11c-1.66-2.79-3.28-5.74-4.74-8.81-.4-.84-.76-1.74-1.1-2.65,2.9,2.57,5.84,5.26,9.28,4.47.45-.11.47-1.19.12-1.52a63.9,63.9,0,0,1-10.81-13.33c1.54,1,3.14,1.84,4.69,2.68a19.5,19.5,0,0,0,7.78,2.55c.61.05.82-1.36.3-1.83a57.05,57.05,0,0,1-10.69-13.11c-1.66-2.78-3.28-5.73-4.74-8.8-.4-.84-.75-1.74-1.09-2.66,2.9,2.57,5.83,5.27,9.27,4.47.45-.1.47-1.19.12-1.51-6.9-6.33-12.81-15.41-17.33-25.92,0-.23-.18-.39-.33-.39s-.3.16-.33.39c-4.52,10.51-10.43,19.59-17.33,25.92-.36.32-.34,1.41.12,1.51,3.45.8,6.39-1.92,9.3-4.49-.3.8-.61,1.58-1,2.32-1.45,3.11-3.09,6-4.73,8.87a55.57,55.57,0,0,1-10.87,13.4c-.51.47-.3,1.88.31,1.83a19.32,19.32,0,0,0,7.52-2.41c1.63-.85,3.32-1.74,4.94-2.8a63.47,63.47,0,0,1-10.8,13.31c-.35.33-.33,1.41.12,1.52,3.45.8,6.4-1.92,9.31-4.5-.3.8-.61,1.59-1,2.33-1.46,3.1-3.09,6-4.74,8.86a55.37,55.37,0,0,1-10.86,13.41c-.52.46-.3,1.87.3,1.83a19.55,19.55,0,0,0,7.53-2.42,44.69,44.69,0,0,0,6.2-3.68,81.14,81.14,0,0,1-4.46,7.31c-3.17,4.6-6.3,9.6-10,13.17-.62.6-.19,2,.46,1.79a39,39,0,0,0,8.85-3.85,31.78,31.78,0,0,0,7.24-5.52c-.26.79-.52,1.57-.79,2.35a29.07,29.07,0,0,1-3.09,6.85c-.47.7,0,1.86.59,1.65a21,21,0,0,0,6.83-4.64,41,41,0,0,0,5.11-5.81l9.72-.85a42.24,42.24,0,0,0,5.71,6.66,20.54,20.54,0,0,0,6.82,4.64c.57.21,1.07-.95.6-1.65a26.57,26.57,0,0,1-3-6.52c-.3-.89-.59-1.78-.88-2.67a32.16,32.16,0,0,0,7.21,5.51,38.33,38.33,0,0,0,8.85,3.85C720.09,496.38,720.53,495,719.91,494.42Z"/></clipPath><clipPath id="q"><path class="a" d="M603.43,493.69c-3.61-3.51-6.62-8.42-9.78-12.89a77.12,77.12,0,0,1-4.68-7.61,50,50,0,0,0,6,3.57,19.59,19.59,0,0,0,7.79,2.55c.6,0,.82-1.36.3-1.83a56.8,56.8,0,0,1-10.69-13.11c-1.66-2.79-3.28-5.74-4.74-8.8-.4-.84-.75-1.74-1.1-2.66,2.9,2.57,5.84,5.27,9.28,4.47.45-.11.47-1.19.12-1.51a64,64,0,0,1-10.81-13.34c1.54,1,3.14,1.85,4.69,2.68a19.34,19.34,0,0,0,7.78,2.55c.61.05.82-1.36.31-1.82a57,57,0,0,1-10.69-13.11c-1.67-2.79-3.28-5.74-4.75-8.81-.4-.84-.75-1.74-1.09-2.66,2.9,2.58,5.83,5.27,9.27,4.47.46-.1.48-1.19.12-1.51-6.89-6.32-12.81-15.4-17.33-25.92,0-.23-.18-.39-.33-.38s-.29.15-.33.38c-4.52,10.52-10.43,19.6-17.33,25.92-.35.32-.33,1.41.12,1.51,3.45.8,6.39-1.91,9.3-4.49-.3.8-.61,1.59-1,2.33-1.46,3.1-3.09,6-4.74,8.86a55.56,55.56,0,0,1-10.86,13.41c-.52.46-.3,1.87.3,1.82a19.32,19.32,0,0,0,7.52-2.41,55.85,55.85,0,0,0,4.94-2.8,63.8,63.8,0,0,1-10.8,13.32c-.35.32-.33,1.4.13,1.51,3.45.8,6.39-1.92,9.3-4.5-.3.8-.61,1.59-1,2.33-1.45,3.1-3.09,6-4.73,8.87a55.77,55.77,0,0,1-10.87,13.4c-.52.47-.3,1.87.31,1.83a19.33,19.33,0,0,0,7.52-2.42,45.37,45.37,0,0,0,6.21-3.68,83.5,83.5,0,0,1-4.46,7.31c-3.18,4.61-6.31,9.6-10,13.17-.62.61-.18,2,.47,1.79a39.41,39.41,0,0,0,8.85-3.85,31.73,31.73,0,0,0,7.23-5.52c-.26.79-.52,1.57-.79,2.35a28.36,28.36,0,0,1-3.09,6.86c-.47.69,0,1.85.6,1.64a21,21,0,0,0,6.82-4.63,42.34,42.34,0,0,0,5.12-5.82l9.71-.85a42.79,42.79,0,0,0,5.71,6.67,20.59,20.59,0,0,0,6.83,4.63c.56.21,1.06-.95.59-1.64a26.82,26.82,0,0,1-3-6.53c-.29-.89-.59-1.77-.88-2.66a32.46,32.46,0,0,0,7.22,5.5,38,38,0,0,0,8.85,3.85C603.62,495.65,604.05,494.3,603.43,493.69Z"/></clipPath><clipPath id="r"><path class="a" d="M497.52,437.63C418.15,418.69,330.83,407.57,245.37,400c-128.94-11.45-261-7-385.31,13.2l-72.15,182.23c0,22,980.94,0,980.94,0V501.23C677.32,481.55,587.73,459.16,497.52,437.63Z"/></clipPath></defs><g class="b"><g class="c"><path class="d" d="M231.46,382.28c-2.09-13.4-11.58-14-28.65-34.8-4.18-5.1-7.38-11.14-12.44-15.47-4.57-3.91-9.84-4.36-15.56-4.35-6.36,0-11.53-2.56-16-6.92-3.51-3.43-6.45-7.47-10.43-10.4-4.32-3.2-9.35-4.55-14.64-5.12a17.77,17.77,0,0,1-9.75-3.79c-2.59-2.07-4-5.11-5.59-7.91-2.91-5-8.37-8.27-13-11.56-5.33-3.82-9.61-7.95-12.87-13.7-6.26-11-11.09-22.82-17.48-33.78a.51.51,0,0,0-.88,0c-4.53,6.59-7.49,15.93-14.74,20.12-1,.56-5,1.36-9,.15a18.13,18.13,0,0,0-4.84-1,10.7,10.7,0,0,0-4.09.43A11.09,11.09,0,0,0,38.28,256a22,22,0,0,0-3.35,3c-2,2.22-4.33,4.17-6.41,6.33-6.1,6.32-13.28,12.17-20.79,13.1-2.59.32-5-.61-7.49-1.09a12.64,12.64,0,0,0-7.59,1.22C-11,280.23-14,283-17.27,285.26c-4.2,3-8.18,3.17-12.25-.21a.53.53,0,0,0-.62-.08L-96.2,319.74l-3.23,1.7a.51.51,0,0,0-.18.7c13.43,21.11,27.08,42.1,41.17,62.77,4.12,6.06,8.29,12.08,12.61,18a94.64,94.64,0,0,0,8.45,10.58,5.43,5.43,0,0,0,3.75,1.7c2.92.43,5.82.94,8.72,1.45,27.57,4.81,55.06,10,82.56,15.2q46.82,8.79,93.56,17.84c7.91,1.54,15.84,3,23.7,4.76,1.91.43,2.88.55,4.57-.78C187.72,447.17,190,442,190,442,198,426.68,234.94,404.51,231.46,382.28Z"/><g class="e"><path class="f" d="M76.47,204c5,9.68-.5,23.08-1,33.51-.24,13.65,5.22,17.13,10.93,28,6.2,13.15,3.47,28.29,13.4,39.22,13.9,16.13,30.53,25.56,42.7,44.43,11.91,19.86,20.6,27.3,42.94,30.78,18.37,2.48,47.91,10.92,50.14-14.9,1.49-18.61-6-39.46-10.92-57.59-5.46-20.35-11.67-41.94-17.88-63.54-7.69-24.08-17.62-56.1-41.45-70.5-22.84-14.14-36.74,7.7-56.6,15.4-11.91,5.46-27.55.49-27.8,18.36"/></g><path class="d" d="M420.35,464.17c-10.1-11.15-19.16-23.16-28.66-34.8-4.18-5.1-7.38-11.13-12.44-15.47-4.57-3.91-9.84-4.36-15.56-4.35-6.36,0-11.53-2.55-16-6.91-3.51-3.43-6.45-7.47-10.43-10.41-4.32-3.2-9.35-4.54-14.63-5.11a17.82,17.82,0,0,1-9.76-3.8c-2.59-2.07-3.95-5.11-5.59-7.91-2.91-5-8.37-8.26-13-11.56-16.72-12-25.25-21.84-35.71-40.28-4.61,2.56-6,8.25-7.36,14.06-2.53-1.82-6.59-2.57-8.81-5.87-6.28,12.34-18.31,28.05-29.68,10.2-10.25,20.46-26.17,14.64-41.14,25.19-4.2,3-8.17,3.17-12.25-.21a.54.54,0,0,0-.62-.08L92.68,401.64l-3.23,1.7a.51.51,0,0,0-.18.7c13.43,21.1,27.08,42.09,41.17,62.77,4.12,6.05,8.29,12.08,12.62,18a92.52,92.52,0,0,0,8.45,10.59,5.34,5.34,0,0,0,3.74,1.69c2.92.43,5.82.95,8.72,1.46,27.57,4.8,55.06,10,82.56,15.19q46.82,8.79,93.57,17.84c7.9,1.54,15.83,3,23.69,4.77,1.92.42,2.88.54,4.57-.79,4.07-3.21,7.33-7.62,10.53-11.65,14.93-18.85,28.36-39,41.54-59.11A.52.52,0,0,0,420.35,464.17Z"/><g class="g"><path class="f" d="M225.25,247.33c5,9.69-.5,23.09-1,33.52-.25,13.65,5.21,17.12,10.92,28,6.2,13.16,3.47,28.3,13.4,39.22,13.9,16.14,30.54,25.57,42.7,44.43,11.91,19.86,20.6,27.31,42.94,30.78,18.37,2.49,47.91,10.93,50.14-14.89,1.49-18.62-5.95-39.47-10.92-57.59-5.46-20.35-11.67-41.95-17.87-63.54-7.7-24.08-17.63-56.1-41.46-70.5-22.83-14.15-36.73,7.7-56.59,15.39-11.92,5.46-27.56.5-27.8,18.37"/></g><path class="d" d="M757.55,347.13c-3.56-1.18-3.56-4.75-7.12-8.31a110.79,110.79,0,0,0-25.77-29c1.54,15.43-8.82-.59-11.52-5.25-5-8.6-9.1-18-17.27-24.24-9.7,10.74-12.7,25.44-20.1,37.58-2.11,3.47-23.24,22.53-20,24.6-2.84-1.79-4.75-4.84-6.89-7.41-9.21,6.77-14.28,19.51-19.92,29.06-1.38-3.7-2.2-7.75-3.41-11.51-13.29,4.08-18.64,24.06-29.42,31.88-12.91,9.36-31.15-3.07-42.83,10.07-11.87,15.44,15.43,20.19,24.93,21.38,28.5,4.75,57,1.18,85.49,1.18,21.37,1.19,42.74,3.57,62.92,2.38,16.62,0,32.06-1.19,48.68-1.19,9.5,0,27.31,2.38,32.06-10.68,7.12-22.56-33.25-48.68-48.68-59.37"/><g class="h"><path class="f" d="M507.13,331.19c.06.13,43.61,93.43,52.73,101.61s33.86,1.45,41.33-2.93c15-8.78,30.16-31.57,39.94-46.06,5.53-8.18,10.76-16.69,17.61-23.89.24-.25,12.6-9.77,11.31-5.92,4.46-13.25,10.79-25.45,14.2-39.08,6.27,3.8,11.4,14.13,14.62,20.73-4-31.73-1.42-63.9-6.38-95.64-7,10.76-12.1,21.71-24.25,26.26-13.13,4.92-25.25,11.42-38.22,16.8-33.11,13.72-67,27-100.57,39.53C528.59,322.93,506.88,330.67,507.13,331.19Z"/></g><path class="i" d="M201.24,350.85C121.87,331.91,34.56,320.79-50.9,313.21c-128.95-11.45-261-7-385.31,13.2l-72.16,182.23c0,22,980.94,0,980.94,0v-94.2C381,394.77,291.46,372.38,201.24,350.85Z"/><g class="j"><path class="k" d="M260.93,365.11c1.85-.47,3.56-.76,3.93-.29-1.24-1.54-5-1.2-7.75-1.17a86.15,86.15,0,0,0-30.84,6.3c-15.28,6-33.75,15.42-49.52,30.37-.93.87-.27,1.26.65.44l8.25,7.49c-.87.79-.55,1.42.43.61a351.58,351.58,0,0,1,37.45-27.25,153.13,153.13,0,0,1,22.62-11.74,87.84,87.84,0,0,1,10.08-3.43C257.23,366.17,259.15,365.55,260.93,365.11Z"/></g><g class="l"><path class="i" d="M445.31,416.81c-77.8-24.62-164.09-42-248.77-55.74C68.75,340.35-63.24,335.21-188.72,346.42L-273.84,523c-1.59,21.95,978.38,70.81,978.38,70.81l6.8-93.95C621.47,473.6,533.73,444.8,445.31,416.81Z"/></g><g class="m"><path class="n" d="M565.69,390.77a42.32,42.32,0,0,1-4.58-6,34.12,34.12,0,0,1-2.2-3.56,22.7,22.7,0,0,0,2.8,1.67,9.19,9.19,0,0,0,3.65,1.2c.28,0,.38-.64.14-.86a26.74,26.74,0,0,1-5-6.14c-.78-1.3-1.53-2.69-2.22-4.13-.19-.39-.35-.81-.51-1.24,1.36,1.21,2.73,2.47,4.34,2.1.22,0,.23-.56.06-.71a29.89,29.89,0,0,1-5.06-6.25c.72.47,1.47.86,2.19,1.26a9.33,9.33,0,0,0,3.65,1.19c.28,0,.38-.64.14-.86a26.53,26.53,0,0,1-5-6.14c-.77-1.3-1.53-2.68-2.22-4.12-.18-.39-.35-.82-.51-1.24,1.36,1.2,2.73,2.46,4.34,2.09.22-.05.23-.56.06-.71a35.52,35.52,0,0,1-8.12-12.14c0-.11-.08-.18-.15-.18s-.14.07-.16.18a35.24,35.24,0,0,1-8.12,12.14c-.16.15-.15.66.06.71,1.62.37,3-.9,4.36-2.11-.14.38-.29.75-.45,1.09-.68,1.46-1.45,2.83-2.22,4.16a26,26,0,0,1-5.09,6.27c-.24.22-.14.88.15.86a9,9,0,0,0,3.52-1.13c.76-.4,1.55-.81,2.31-1.31a30.08,30.08,0,0,1-5.06,6.24c-.16.15-.15.66.06.71,1.62.37,3-.9,4.36-2.11-.14.37-.29.74-.45,1.09-.68,1.45-1.45,2.82-2.22,4.15a26.06,26.06,0,0,1-5.09,6.28c-.24.22-.14.88.15.86a9.3,9.3,0,0,0,3.52-1.13,22.49,22.49,0,0,0,2.91-1.73,38.83,38.83,0,0,1-2.09,3.42,42.43,42.43,0,0,1-4.67,6.17c-.29.29-.09.92.21.84a18.38,18.38,0,0,0,4.15-1.8,15,15,0,0,0,3.39-2.59c-.12.37-.25.74-.37,1.1a13.31,13.31,0,0,1-1.45,3.21c-.22.33,0,.88.28.78a10,10,0,0,0,3.2-2.18,18.75,18.75,0,0,0,2.39-2.72l4.55-.4a19.22,19.22,0,0,0,2.68,3.12,9.72,9.72,0,0,0,3.19,2.18c.27.1.5-.45.28-.78a12.57,12.57,0,0,1-1.39-3l-.42-1.25a15.73,15.73,0,0,0,3.38,2.58,17.94,17.94,0,0,0,4.15,1.8C565.77,391.69,566,391.06,565.69,390.77Z"/><path class="o" d="M562.63,385.28a35.49,35.49,0,0,1-3.59-5,29,29,0,0,1-1.73-3,17.51,17.51,0,0,0,2.2,1.39,6.73,6.73,0,0,0,2.86,1c.23,0,.31-.53.12-.71a22.09,22.09,0,0,1-3.94-5.12c-.61-1.09-1.2-2.24-1.74-3.44a9.59,9.59,0,0,1-.4-1c1.06,1,2.14,2.05,3.41,1.74.17,0,.17-.46,0-.59a24.81,24.81,0,0,1-4-5.2c.57.39,1.15.72,1.72,1a6.73,6.73,0,0,0,2.86,1c.23,0,.31-.53.12-.71a22.09,22.09,0,0,1-3.94-5.12c-.61-1.09-1.2-2.24-1.74-3.43a10.68,10.68,0,0,1-.4-1c1.06,1,2.14,2.05,3.41,1.74.16,0,.17-.46,0-.59a29.76,29.76,0,0,1-6.37-10.11c0-.09-.07-.15-.12-.15s-.11.06-.12.15A29.78,29.78,0,0,1,545,358.21c-.13.13-.12.55,0,.59,1.27.32,2.35-.74,3.42-1.75-.11.31-.23.62-.35.91-.54,1.21-1.14,2.35-1.75,3.46a21.34,21.34,0,0,1-4,5.23c-.19.18-.11.73.11.71a6.81,6.81,0,0,0,2.77-.94,20.2,20.2,0,0,0,1.81-1.09,24.4,24.4,0,0,1-4,5.19c-.13.13-.12.55,0,.59,1.27.31,2.35-.75,3.42-1.75-.11.31-.23.62-.35.91-.54,1.21-1.14,2.35-1.75,3.45a21.21,21.21,0,0,1-4,5.24c-.19.18-.11.73.11.71a6.81,6.81,0,0,0,2.77-.94,16,16,0,0,0,2.28-1.44,32.23,32.23,0,0,1-1.64,2.85,34.61,34.61,0,0,1-3.67,5.14c-.22.24-.07.77.17.7a14.24,14.24,0,0,0,3.26-1.5,12,12,0,0,0,2.66-2.16c-.1.31-.19.62-.29.92a11.88,11.88,0,0,1-1.14,2.68c-.17.27,0,.72.22.64a7.64,7.64,0,0,0,2.51-1.81c.66-.66,1.3,3.46,1.88,2.61l3.58-.33c.64,1,1.35-3,2.09-2.28a7.6,7.6,0,0,0,2.51,1.81c.21.08.4-.37.22-.64a10.76,10.76,0,0,1-1.09-2.55l-.33-1a12,12,0,0,0,2.66,2.15,13.76,13.76,0,0,0,3.25,1.5C562.7,386.05,562.86,385.52,562.63,385.28Z"/></g><g class="p"><path class="n" d="M443.87,397.42a28.55,28.55,0,0,1-3.1-4.08,26.43,26.43,0,0,1-1.48-2.4,15.36,15.36,0,0,0,1.89,1.12,6.05,6.05,0,0,0,2.46.81c.19,0,.26-.43.1-.58a17.82,17.82,0,0,1-3.38-4.14c-.53-.88-1-1.82-1.5-2.79-.13-.26-.24-.55-.35-.84.92.82,1.85,1.67,2.94,1.42.14,0,.15-.38,0-.48a20.26,20.26,0,0,1-3.42-4.22c.49.32,1,.59,1.48.85a6.21,6.21,0,0,0,2.46.81c.19,0,.26-.43.1-.58a17.68,17.68,0,0,1-3.38-4.15c-.53-.88-1-1.81-1.5-2.78-.13-.27-.24-.55-.35-.84.92.81,1.85,1.67,2.93,1.41.15,0,.15-.37,0-.48a23.94,23.94,0,0,1-5.48-8.19c0-.07-.06-.12-.1-.12a.13.13,0,0,0-.11.12,23.94,23.94,0,0,1-5.48,8.19c-.11.11-.1.45,0,.48,1.09.26,2-.6,2.94-1.42-.09.26-.19.5-.3.74-.46,1-1,1.9-1.5,2.8a17.72,17.72,0,0,1-3.43,4.24c-.16.15-.1.59.09.58a6.05,6.05,0,0,0,2.38-.77,14.35,14.35,0,0,0,1.56-.88,20.15,20.15,0,0,1-3.41,4.21c-.11.1-.1.45,0,.48,1.09.25,2-.61,2.94-1.42-.1.25-.19.5-.3.73-.46,1-1,1.91-1.5,2.8a17.13,17.13,0,0,1-3.44,4.24c-.16.15-.09.6.1.58a6.2,6.2,0,0,0,2.38-.76,14.27,14.27,0,0,0,2-1.17,23.65,23.65,0,0,1-1.41,2.31,27.92,27.92,0,0,1-3.15,4.17c-.2.19-.06.62.15.56a12,12,0,0,0,2.79-1.21A9.76,9.76,0,0,0,429.9,395c-.08.25-.16.5-.25.74a9.2,9.2,0,0,1-1,2.17c-.15.22,0,.59.18.52A6.56,6.56,0,0,0,431,397a13.23,13.23,0,0,0,1.62-1.84l3.07-.27a13,13,0,0,0,1.81,2.11,6.42,6.42,0,0,0,2.15,1.46c.18.07.34-.3.19-.52a8.12,8.12,0,0,1-.94-2.06c-.1-.28-.19-.56-.28-.84a10.46,10.46,0,0,0,2.28,1.74,11.81,11.81,0,0,0,2.8,1.21C443.92,398,444.06,397.61,443.87,397.42Z"/><path class="o" d="M441.8,393.71a24.18,24.18,0,0,1-2.42-3.4,21.06,21.06,0,0,1-1.17-2,10.88,10.88,0,0,0,1.49.94,4.65,4.65,0,0,0,1.93.67c.15,0,.2-.36.07-.48a14.84,14.84,0,0,1-2.65-3.45c-.41-.74-.81-1.51-1.18-2.32-.1-.22-.18-.46-.27-.7.72.68,1.45,1.39,2.3,1.18.12,0,.12-.32,0-.4a16.9,16.9,0,0,1-2.68-3.51c.38.26.78.48,1.17.7a4.56,4.56,0,0,0,1.93.67c.15,0,.2-.35.07-.48a14.64,14.64,0,0,1-2.65-3.45c-.41-.73-.81-1.51-1.18-2.32a7.26,7.26,0,0,1-.27-.7c.72.68,1.45,1.39,2.3,1.18.11,0,.12-.32,0-.4a20.14,20.14,0,0,1-4.3-6.83c0-.06-.05-.1-.08-.1a.09.09,0,0,0-.08.1,20.16,20.16,0,0,1-4.31,6.83c-.09.08-.08.37,0,.4.86.21,1.59-.51,2.31-1.19-.07.22-.15.42-.23.62-.37.81-.77,1.58-1.18,2.33a14.18,14.18,0,0,1-2.7,3.53c-.13.13-.07.5.08.48a4.47,4.47,0,0,0,1.87-.63c.4-.23.82-.46,1.22-.74a16.9,16.9,0,0,1-2.68,3.51c-.09.08-.08.37,0,.4.86.21,1.59-.51,2.31-1.19a6.62,6.62,0,0,1-.24.62c-.36.81-.76,1.58-1.17,2.33a14.67,14.67,0,0,1-2.7,3.53c-.13.12-.08.5.08.48a4.52,4.52,0,0,0,1.86-.63,11,11,0,0,0,1.54-1,19.64,19.64,0,0,1-1.1,1.92,23.85,23.85,0,0,1-2.48,3.47c-.15.16,0,.52.12.47a9.17,9.17,0,0,0,2.19-1,7.8,7.8,0,0,0,1.8-1.46c-.06.21-.13.42-.2.62a7.46,7.46,0,0,1-.76,1.81c-.12.18,0,.49.14.43a5.07,5.07,0,0,0,1.7-1.22c.44-.45.87,2.34,1.27,1.76l2.41-.22c.43.67.92-2.05,1.42-1.54a5,5,0,0,0,1.69,1.22c.14.06.26-.25.15-.43a7.49,7.49,0,0,1-.74-1.72c-.08-.23-.15-.47-.22-.7a8.2,8.2,0,0,0,1.79,1.45,9.06,9.06,0,0,0,2.2,1C441.85,394.23,442,393.87,441.8,393.71Z"/></g><g class="q"><path class="n" d="M422.83,403.57a26,26,0,0,1-2.76-3.63,22.14,22.14,0,0,1-1.31-2.14,14.66,14.66,0,0,0,1.68,1,5.47,5.47,0,0,0,2.19.71c.17,0,.23-.38.08-.51a15.94,15.94,0,0,1-3-3.69,27.73,27.73,0,0,1-1.34-2.48c-.11-.23-.21-.49-.31-.74.82.72,1.65,1.48,2.61,1.26.13,0,.14-.34,0-.43a17.71,17.71,0,0,1-3-3.75c.43.28.88.52,1.31.75a5.49,5.49,0,0,0,2.19.72c.18,0,.24-.38.09-.51a16.23,16.23,0,0,1-3-3.69c-.46-.79-.92-1.62-1.33-2.48-.11-.24-.21-.49-.31-.75.82.73,1.64,1.48,2.61,1.26.13,0,.13-.33,0-.43a21.2,21.2,0,0,1-4.87-7.29c0-.06-.05-.11-.09-.11s-.09.05-.1.11a21.2,21.2,0,0,1-4.87,7.29c-.1.1-.1.4,0,.43,1,.22,1.8-.54,2.62-1.27-.09.23-.17.45-.27.66-.41.87-.87,1.69-1.33,2.49a15.61,15.61,0,0,1-3.06,3.78c-.14.13-.08.52.09.51a5.44,5.44,0,0,0,2.11-.68c.46-.24.93-.49,1.39-.79a18,18,0,0,1-3,3.75c-.1.09-.09.4,0,.43,1,.22,1.8-.55,2.61-1.27-.08.22-.17.45-.26.65-.41.88-.87,1.7-1.34,2.5a15.72,15.72,0,0,1-3.05,3.77c-.15.13-.09.53.08.51a5.43,5.43,0,0,0,2.12-.68,13,13,0,0,0,1.74-1,22.8,22.8,0,0,1-1.25,2.05,24.05,24.05,0,0,1-2.81,3.71c-.17.17-.05.55.14.5a10.62,10.62,0,0,0,2.49-1.08,9.05,9.05,0,0,0,2-1.55l-.22.66a8.32,8.32,0,0,1-.87,1.93c-.13.19,0,.52.17.46a5.83,5.83,0,0,0,1.92-1.3,12.1,12.1,0,0,0,1.43-1.64l2.74-.24a12.45,12.45,0,0,0,1.6,1.88,5.94,5.94,0,0,0,1.92,1.3c.16.06.3-.27.17-.46a7.79,7.79,0,0,1-.84-1.84l-.24-.75a9.13,9.13,0,0,0,2,1.55,10.38,10.38,0,0,0,2.48,1.08C422.88,404.12,423,403.74,422.83,403.57Z"/><path class="o" d="M421,400.27a21.39,21.39,0,0,1-2.16-3,17.88,17.88,0,0,1-1-1.79,9.43,9.43,0,0,0,1.32.84,4,4,0,0,0,1.71.6c.14,0,.19-.32.07-.43a13.47,13.47,0,0,1-2.36-3.07c-.37-.65-.72-1.35-1.05-2.06q-.12-.3-.24-.63c.64.61,1.29,1.24,2.05,1.05.1,0,.11-.28,0-.35a14.42,14.42,0,0,1-2.39-3.13c.34.24.69.43,1,.63a4.18,4.18,0,0,0,1.71.6c.14,0,.19-.32.07-.43A13.47,13.47,0,0,1,417.4,386q-.56-1-1-2.07c-.09-.19-.16-.41-.24-.62.64.6,1.29,1.23,2.05,1.05.1,0,.1-.28,0-.36a17.81,17.81,0,0,1-3.83-6.07c0-.05,0-.09-.07-.09s-.07,0-.08.09a17.81,17.81,0,0,1-3.83,6.07c-.07.08-.07.33,0,.36.76.19,1.41-.45,2.06-1.06-.07.19-.14.38-.22.55-.32.73-.68,1.41-1,2.08a12.88,12.88,0,0,1-2.4,3.14c-.12.11-.07.44.07.43a4.06,4.06,0,0,0,1.66-.57c.36-.2.73-.41,1.09-.65a14.6,14.6,0,0,1-2.39,3.12c-.07.07-.07.33,0,.35.76.19,1.41-.45,2.06-1.05-.07.18-.14.37-.22.54-.32.73-.68,1.41-1,2.08a13.13,13.13,0,0,1-2.4,3.14c-.12.11-.07.44.07.43a4.11,4.11,0,0,0,1.66-.57,9.7,9.7,0,0,0,1.37-.86,17.43,17.43,0,0,1-1,1.71,21,21,0,0,1-2.2,3.09c-.14.14,0,.46.1.42a8.4,8.4,0,0,0,2-.9,7,7,0,0,0,1.59-1.3c-.05.19-.11.37-.17.55a7.15,7.15,0,0,1-.68,1.61c-.11.17,0,.44.13.39A4.59,4.59,0,0,0,412,400c.39-.4.78,2.08,1.13,1.57l2.14-.2c.39.6.82-1.82,1.26-1.37a4.59,4.59,0,0,0,1.51,1.09c.13,0,.24-.22.13-.39a6.72,6.72,0,0,1-.66-1.53c-.06-.21-.13-.41-.19-.62a7.51,7.51,0,0,0,1.59,1.29,8.6,8.6,0,0,0,2,.9C421,400.73,421.13,400.41,421,400.27Z"/></g><g class="r"><path class="n" d="M454.66,394.13a19,19,0,0,1-2.05-2.69,17.42,17.42,0,0,1-1-1.6,10.33,10.33,0,0,0,1.25.75,4.08,4.08,0,0,0,1.63.54c.13,0,.18-.29.07-.39a11.87,11.87,0,0,1-2.24-2.74,20.09,20.09,0,0,1-1-1.84,5.48,5.48,0,0,1-.23-.56c.6.54,1.22,1.1,1.94.94.09,0,.1-.25,0-.32a13.9,13.9,0,0,1-2.26-2.79c.33.21.66.39,1,.56a4,4,0,0,0,1.63.53c.13,0,.17-.28.07-.38a11.87,11.87,0,0,1-2.24-2.74,20.09,20.09,0,0,1-1-1.84A5.48,5.48,0,0,1,450,379c.6.54,1.22,1.1,1.94.94.09,0,.1-.25,0-.32a15.73,15.73,0,0,1-3.62-5.43s0-.08-.07-.08a.09.09,0,0,0-.07.08,15.89,15.89,0,0,1-3.63,5.43c-.07.07-.07.29,0,.32.72.16,1.33-.41,1.94-.95a3.58,3.58,0,0,1-.2.49c-.3.65-.64,1.26-1,1.86a11.67,11.67,0,0,1-2.27,2.8c-.11.1-.06.39.06.38a3.94,3.94,0,0,0,1.58-.5,10.83,10.83,0,0,0,1-.59,13.3,13.3,0,0,1-2.26,2.79c-.07.07-.07.3,0,.32.73.17,1.34-.4,1.95-.94a4,4,0,0,1-.2.48c-.3.65-.64,1.26-1,1.86a11.67,11.67,0,0,1-2.27,2.8c-.11.1-.07.39.06.39a4.12,4.12,0,0,0,1.58-.51,8.61,8.61,0,0,0,1.29-.77,16.36,16.36,0,0,1-.93,1.53,18.05,18.05,0,0,1-2.09,2.75c-.12.13,0,.41.1.38a8.13,8.13,0,0,0,1.85-.81,6.22,6.22,0,0,0,1.52-1.15c-.06.16-.11.33-.17.49a6.54,6.54,0,0,1-.64,1.44c-.1.14,0,.38.12.34a4.48,4.48,0,0,0,1.43-1,9.16,9.16,0,0,0,1.07-1.22l2-.17a9.68,9.68,0,0,0,1.2,1.39,4.29,4.29,0,0,0,1.42,1c.12,0,.23-.2.13-.34a6,6,0,0,1-.63-1.37l-.18-.56a6.65,6.65,0,0,0,1.51,1.15,7.72,7.72,0,0,0,1.85.81C454.7,394.54,454.79,394.26,454.66,394.13Z"/><path class="o" d="M453.29,391.68a16.35,16.35,0,0,1-1.6-2.25,12.73,12.73,0,0,1-.77-1.32,9.42,9.42,0,0,0,1,.62,3,3,0,0,0,1.28.44c.1,0,.13-.23.05-.31a10,10,0,0,1-1.76-2.29c-.27-.49-.54-1-.78-1.54-.06-.14-.12-.3-.18-.46.48.45,1,.92,1.53.78.07,0,.08-.21,0-.26a10.83,10.83,0,0,1-1.78-2.33c.26.18.52.33.77.47a3.18,3.18,0,0,0,1.28.45c.1,0,.13-.24.05-.32a10.26,10.26,0,0,1-1.76-2.29q-.4-.74-.78-1.53c-.06-.15-.12-.31-.17-.47.47.45.95.92,1.52.78.07,0,.08-.21,0-.26a13.32,13.32,0,0,1-2.85-4.52.07.07,0,0,0-.05-.07s-.05,0-.06.07a13.31,13.31,0,0,1-2.84,4.52c-.06.05-.06.24,0,.26.57.14,1.06-.33,1.53-.78-.05.14-.1.28-.15.4-.24.55-.51,1-.78,1.55a9.45,9.45,0,0,1-1.79,2.34c-.08.08-.05.32,0,.32a3.07,3.07,0,0,0,1.24-.43,8.59,8.59,0,0,0,.81-.48,11,11,0,0,1-1.77,2.32c-.06.05-.06.24,0,.26.56.14,1.05-.33,1.53-.78-.05.14-.11.28-.16.4-.24.54-.51,1-.78,1.55a9.45,9.45,0,0,1-1.79,2.34c-.08.08-.05.32.06.31a2.91,2.91,0,0,0,1.23-.42,6.62,6.62,0,0,0,1-.64c-.23.45-.48.88-.73,1.27a15.18,15.18,0,0,1-1.64,2.3c-.1.11,0,.34.08.31a5.91,5.91,0,0,0,1.45-.67,5.51,5.51,0,0,0,1.19-1c0,.14-.09.27-.13.41a4.8,4.8,0,0,1-.51,1.19c-.08.13,0,.33.1.29a3.36,3.36,0,0,0,1.12-.81c.29-.29.58,1.55.84,1.17l1.6-.15c.28.45.6-1.35.94-1a3.26,3.26,0,0,0,1.12.81c.09,0,.17-.16.09-.29a5.34,5.34,0,0,1-.49-1.13l-.14-.47a5.19,5.19,0,0,0,1.18,1,6.14,6.14,0,0,0,1.46.67C453.33,392,453.4,391.79,453.29,391.68Z"/></g><g class="s"><path class="n" d="M401.26,404.49a18.57,18.57,0,0,1-2.05-2.7,17.23,17.23,0,0,1-1-1.59,11.81,11.81,0,0,0,1.25.75,4.17,4.17,0,0,0,1.63.53c.13,0,.18-.28.07-.38a11.87,11.87,0,0,1-2.24-2.74c-.35-.59-.69-1.21-1-1.85a4.53,4.53,0,0,1-.23-.55c.61.54,1.22,1.1,1.94.93.09,0,.1-.25,0-.32a13.55,13.55,0,0,1-2.26-2.78c.33.21.66.38,1,.56a4.17,4.17,0,0,0,1.63.53c.13,0,.17-.28.06-.38a12,12,0,0,1-2.23-2.75,20.09,20.09,0,0,1-1-1.84,4.53,4.53,0,0,1-.23-.55c.61.53,1.22,1.1,1.94.93.09,0,.1-.25,0-.32a15.78,15.78,0,0,1-3.62-5.42c0-.05,0-.08-.07-.08a.08.08,0,0,0-.07.08,15.94,15.94,0,0,1-3.63,5.42c-.07.07-.07.3,0,.32.72.17,1.34-.4,1.94-.94a4.19,4.19,0,0,1-.2.49,20.28,20.28,0,0,1-1,1.85,11.54,11.54,0,0,1-2.27,2.81c-.11.1-.06.39.06.38a4.28,4.28,0,0,0,1.58-.5c.34-.18.69-.37,1-.59a13.23,13.23,0,0,1-2.26,2.78c-.07.07-.07.3,0,.32.72.17,1.33-.4,1.94-.94a4.19,4.19,0,0,1-.2.49,20.28,20.28,0,0,1-1,1.85,11.54,11.54,0,0,1-2.27,2.81c-.11.1-.06.39.06.38a4.28,4.28,0,0,0,1.58-.5,9.54,9.54,0,0,0,1.29-.77,16.19,16.19,0,0,1-.93,1.52,17.67,17.67,0,0,1-2.09,2.76c-.12.13,0,.41.1.37a7.68,7.68,0,0,0,1.85-.8A6.53,6.53,0,0,0,392,402.9l-.17.5a6.46,6.46,0,0,1-.64,1.43c-.1.15,0,.39.12.34a4.29,4.29,0,0,0,1.43-1,9.16,9.16,0,0,0,1.07-1.22l2-.18a9.18,9.18,0,0,0,1.2,1.4,4.19,4.19,0,0,0,1.43,1c.11.05.22-.19.12-.34a5.38,5.38,0,0,1-.62-1.37c-.07-.18-.13-.37-.19-.55a7,7,0,0,0,1.51,1.15,7.85,7.85,0,0,0,1.85.8C401.3,404.9,401.39,404.62,401.26,404.49Z"/><path class="o" d="M399.9,402a16.15,16.15,0,0,1-1.61-2.25,14.06,14.06,0,0,1-.77-1.33,6.43,6.43,0,0,0,1,.62,3,3,0,0,0,1.28.45c.1,0,.14-.24.05-.32a9.76,9.76,0,0,1-1.76-2.29c-.27-.48-.54-1-.78-1.53-.06-.15-.12-.3-.17-.46.47.45.95.92,1.52.78.07,0,.08-.21,0-.27a11,11,0,0,1-1.78-2.32c.26.17.52.32.77.47a3.16,3.16,0,0,0,1.28.44c.1,0,.14-.24.05-.32a10,10,0,0,1-1.76-2.28c-.27-.49-.53-1-.77-1.54a3.14,3.14,0,0,1-.18-.46c.47.45,1,.92,1.52.78.07,0,.08-.21,0-.27a13.28,13.28,0,0,1-2.85-4.51.07.07,0,0,0,0-.07s-.05,0-.06.07a13.26,13.26,0,0,1-2.84,4.51c-.06.06-.06.25,0,.27.57.14,1.06-.34,1.53-.79l-.15.41c-.24.54-.51,1.05-.78,1.54a9.27,9.27,0,0,1-1.79,2.34c-.08.08,0,.33.05.32a3,3,0,0,0,1.24-.42,8.73,8.73,0,0,0,.81-.49,11,11,0,0,1-1.77,2.32c-.06.06-.06.25,0,.27.56.14,1.05-.34,1.53-.79,0,.14-.1.28-.16.41-.24.54-.51,1.05-.78,1.54a9.27,9.27,0,0,1-1.79,2.34c-.08.08,0,.33.06.32a3.06,3.06,0,0,0,1.23-.42,8.62,8.62,0,0,0,1-.64c-.23.45-.48.87-.73,1.27a15.7,15.7,0,0,1-1.64,2.3c-.1.1,0,.34.08.31a6.3,6.3,0,0,0,1.45-.67,5.51,5.51,0,0,0,1.19-1c0,.13-.09.27-.13.41a5.14,5.14,0,0,1-.51,1.19c-.08.12,0,.32.1.29a3.5,3.5,0,0,0,1.12-.81c.29-.3.58,1.55.84,1.16l1.6-.14c.28.44.6-1.36.93-1a3.54,3.54,0,0,0,1.13.81c.09,0,.17-.17.09-.29a5.43,5.43,0,0,1-.49-1.14c-.05-.15-.09-.31-.14-.46a5.28,5.28,0,0,0,1.19,1,6.3,6.3,0,0,0,1.45.67C399.93,402.38,400,402.14,399.9,402Z"/></g><g class="t"><path class="n" d="M607.12,382.79a18.57,18.57,0,0,1-2-2.7,15.3,15.3,0,0,1-1-1.59,10.88,10.88,0,0,0,1.25.75,4.17,4.17,0,0,0,1.63.53c.13,0,.17-.28.06-.38a12.11,12.11,0,0,1-2.23-2.74c-.35-.59-.69-1.2-1-1.85-.08-.17-.15-.36-.22-.55.6.54,1.22,1.1,1.94.93.09,0,.1-.25,0-.31a13.56,13.56,0,0,1-2.26-2.79c.32.21.65.38,1,.56a4.17,4.17,0,0,0,1.63.53c.13,0,.17-.28.06-.38a12.14,12.14,0,0,1-2.24-2.74c-.34-.59-.68-1.21-1-1.85-.08-.17-.15-.36-.22-.55.6.54,1.21,1.1,1.93.93.1,0,.1-.25,0-.32a15.94,15.94,0,0,1-3.63-5.42.08.08,0,0,0-.07-.08s-.06,0-.06.08a15.94,15.94,0,0,1-3.63,5.42c-.08.07-.07.3,0,.32.73.17,1.34-.4,1.95-.94-.06.17-.13.33-.2.49-.3.65-.65,1.26-1,1.85a11.54,11.54,0,0,1-2.27,2.81c-.11.1-.07.39.06.38a4.18,4.18,0,0,0,1.57-.5c.35-.18.7-.37,1-.59a13.62,13.62,0,0,1-2.26,2.79c-.08.06-.07.29,0,.31.72.17,1.34-.4,2-.94-.06.17-.13.33-.2.49-.31.65-.65,1.26-1,1.85a11.77,11.77,0,0,1-2.27,2.81c-.11.1-.07.39.06.38a4.18,4.18,0,0,0,1.57-.5,9.64,9.64,0,0,0,1.3-.77,16.36,16.36,0,0,1-.93,1.53,18.72,18.72,0,0,1-2.09,2.75c-.13.13,0,.41.1.38a8.13,8.13,0,0,0,1.85-.81,6.72,6.72,0,0,0,1.51-1.15c0,.16-.11.32-.16.49a6,6,0,0,1-.65,1.43c-.1.15,0,.39.13.35a4.59,4.59,0,0,0,1.43-1,9.93,9.93,0,0,0,1.07-1.22l2-.18a8.68,8.68,0,0,0,1.19,1.4,4.43,4.43,0,0,0,1.43,1c.12,0,.22-.2.13-.35a5.32,5.32,0,0,1-.63-1.36l-.18-.56a6.72,6.72,0,0,0,1.51,1.15,8.13,8.13,0,0,0,1.85.81C607.16,383.2,607.25,382.92,607.12,382.79Z"/><path class="o" d="M605.75,380.34a15.54,15.54,0,0,1-1.6-2.25,12.18,12.18,0,0,1-.77-1.33,7.39,7.39,0,0,0,1,.63,3.11,3.11,0,0,0,1.27.44c.11,0,.14-.24.06-.32a9.44,9.44,0,0,1-1.76-2.28c-.27-.49-.54-1-.78-1.54-.07-.15-.12-.3-.18-.46.48.45,1,.92,1.52.78.08,0,.08-.21,0-.27a11.33,11.33,0,0,1-1.77-2.32,8.81,8.81,0,0,0,.77.47,3.11,3.11,0,0,0,1.28.44c.1,0,.13-.23.05-.32a9.44,9.44,0,0,1-1.76-2.28c-.27-.49-.54-1-.78-1.54-.06-.14-.12-.3-.18-.46.48.45,1,.92,1.53.78.07,0,.07-.21,0-.26a13.27,13.27,0,0,1-2.85-4.52s0-.07-.06-.07,0,0,0,.07a13.27,13.27,0,0,1-2.85,4.52c-.06.05-.05.24,0,.26.57.14,1-.33,1.53-.78,0,.14-.1.27-.16.4-.23.54-.5,1.05-.77,1.55a9.69,9.69,0,0,1-1.79,2.33c-.08.09-.05.33,0,.32a3.15,3.15,0,0,0,1.24-.42,8.73,8.73,0,0,0,.81-.49,10.76,10.76,0,0,1-1.78,2.32c0,.06,0,.25,0,.27.57.14,1.05-.34,1.53-.78l-.15.4c-.24.54-.51,1.05-.78,1.55a9.89,9.89,0,0,1-1.79,2.33c-.08.08-.05.33,0,.32a3,3,0,0,0,1.24-.42,7.49,7.49,0,0,0,1-.64,14.1,14.1,0,0,1-.74,1.27,15.15,15.15,0,0,1-1.63,2.3c-.11.11,0,.34.07.31a6.37,6.37,0,0,0,1.46-.67,5.51,5.51,0,0,0,1.19-1c0,.13-.09.27-.13.41a5.61,5.61,0,0,1-.51,1.19c-.08.12,0,.33.1.29a3.62,3.62,0,0,0,1.12-.81c.29-.3.58,1.55.84,1.17l1.59-.15c.29.44.61-1.36.94-1a3.46,3.46,0,0,0,1.12.81c.1,0,.18-.17.1-.29a4.56,4.56,0,0,1-.49-1.14c0-.15-.1-.31-.14-.46a5.47,5.47,0,0,0,1.18,1,5.81,5.81,0,0,0,1.46.67C605.78,380.68,605.85,380.45,605.75,380.34Z"/></g><g class="u"><path class="n" d="M740.29,381.25a18.57,18.57,0,0,1-2-2.7,17.23,17.23,0,0,1-1-1.59,11.81,11.81,0,0,0,1.25.75,4.17,4.17,0,0,0,1.63.53c.13,0,.17-.28.07-.38a11.87,11.87,0,0,1-2.24-2.74,20.28,20.28,0,0,1-1-1.85,4.53,4.53,0,0,1-.23-.55c.6.54,1.22,1.1,1.94.93.09,0,.1-.25,0-.31a13.9,13.9,0,0,1-2.26-2.79c.32.21.66.38,1,.56a4.17,4.17,0,0,0,1.63.53c.13,0,.17-.28.06-.38a12.11,12.11,0,0,1-2.23-2.74c-.35-.59-.69-1.21-1-1.85a4.53,4.53,0,0,1-.23-.55c.6.54,1.22,1.1,1.94.93.09,0,.1-.25,0-.32a15.94,15.94,0,0,1-3.63-5.42c0-.05,0-.08-.06-.08a.08.08,0,0,0-.07.08,15.94,15.94,0,0,1-3.63,5.42c-.07.07-.07.3,0,.32.72.17,1.33-.4,1.94-.94-.06.17-.13.33-.2.49a20.28,20.28,0,0,1-1,1.85,11.54,11.54,0,0,1-2.27,2.81c-.11.1-.07.39.06.38a4.28,4.28,0,0,0,1.58-.5c.34-.18.69-.37,1-.59a13.3,13.3,0,0,1-2.26,2.79c-.08.06-.07.29,0,.31.73.17,1.34-.4,2-.94-.06.17-.13.33-.2.49a20.28,20.28,0,0,1-1,1.85,11.54,11.54,0,0,1-2.27,2.81c-.11.1-.07.39.06.38a4.1,4.1,0,0,0,1.58-.5,9.54,9.54,0,0,0,1.29-.77,16.36,16.36,0,0,1-.93,1.53,18.05,18.05,0,0,1-2.09,2.75c-.13.13,0,.41.1.38a8.13,8.13,0,0,0,1.85-.81,7,7,0,0,0,1.52-1.15c-.06.16-.11.33-.17.49a6.46,6.46,0,0,1-.64,1.43c-.1.15,0,.39.12.35a4.48,4.48,0,0,0,1.43-1,9.16,9.16,0,0,0,1.07-1.22l2-.18a8.25,8.25,0,0,0,1.2,1.4,4.29,4.29,0,0,0,1.42,1c.12,0,.23-.2.13-.35a5.69,5.69,0,0,1-.63-1.36l-.18-.56a6.72,6.72,0,0,0,1.51,1.15,8.13,8.13,0,0,0,1.85.81C740.33,381.66,740.42,381.38,740.29,381.25Z"/><path class="o" d="M738.92,378.8a16.35,16.35,0,0,1-1.6-2.25,12.9,12.9,0,0,1-.77-1.33,7.39,7.39,0,0,0,1,.63,3.16,3.16,0,0,0,1.28.44c.1,0,.13-.24.05-.32a9.7,9.7,0,0,1-1.76-2.28c-.27-.49-.54-1-.78-1.54-.06-.14-.12-.3-.18-.46.48.45,1,.92,1.53.78.07,0,.08-.21,0-.26a11.35,11.35,0,0,1-1.78-2.33c.26.18.52.32.77.47a3,3,0,0,0,1.28.44c.1,0,.13-.23,0-.32a10,10,0,0,1-1.76-2.28c-.27-.49-.54-1-.78-1.54-.06-.14-.12-.3-.18-.46.48.45,1,.92,1.53.78.07,0,.08-.21,0-.26a13.42,13.42,0,0,1-2.85-4.52s0-.07,0-.07-.05,0-.06.07a13.27,13.27,0,0,1-2.85,4.52c0,.05,0,.24,0,.26.57.14,1.05-.33,1.53-.78l-.15.4c-.24.54-.51,1.05-.78,1.55a9.45,9.45,0,0,1-1.79,2.33c-.08.09-.05.33,0,.32a3,3,0,0,0,1.24-.42,8.73,8.73,0,0,0,.81-.49,11.4,11.4,0,0,1-1.77,2.33c-.06.05-.06.24,0,.26.56.14,1-.33,1.53-.78-.06.13-.11.27-.16.4-.24.54-.51,1.05-.78,1.55A9.39,9.39,0,0,1,729,376c-.08.08,0,.33,0,.32a3,3,0,0,0,1.24-.42,7.49,7.49,0,0,0,1-.64c-.23.45-.48.87-.73,1.27a15.18,15.18,0,0,1-1.64,2.3c-.1.11,0,.34.07.31a6.18,6.18,0,0,0,1.46-.67,5.51,5.51,0,0,0,1.19-1c0,.13-.09.27-.13.41a5.14,5.14,0,0,1-.51,1.19c-.08.12,0,.33.1.29a3.5,3.5,0,0,0,1.12-.81c.29-.3.58,1.55.84,1.17l1.6-.15c.28.44.6-1.36.93-1a3.46,3.46,0,0,0,1.12.81c.1,0,.18-.17.1-.29a5,5,0,0,1-.49-1.14c-.05-.15-.09-.3-.14-.46a5.47,5.47,0,0,0,1.18,1,6.14,6.14,0,0,0,1.46.67C739,379.14,739,378.91,738.92,378.8Z"/></g><g class="v"><path class="n" d="M582.67,387.87a29.76,29.76,0,0,1-3.09-4.07,23.42,23.42,0,0,1-1.48-2.41,15.46,15.46,0,0,0,1.89,1.13,6,6,0,0,0,2.46.8c.19,0,.26-.43.09-.57a18.41,18.41,0,0,1-3.38-4.15c-.52-.88-1-1.81-1.49-2.78-.13-.27-.24-.55-.35-.84.92.81,1.84,1.66,2.93,1.41.14,0,.15-.37,0-.48a19.93,19.93,0,0,1-3.42-4.21c.49.32,1,.58,1.48.84a6.05,6.05,0,0,0,2.46.81c.2,0,.27-.43.1-.58a17.87,17.87,0,0,1-3.38-4.14c-.52-.88-1-1.82-1.5-2.79a7,7,0,0,1-.34-.84c.91.82,1.84,1.67,2.93,1.42.14,0,.15-.38,0-.48a24,24,0,0,1-5.49-8.2.11.11,0,0,0-.1-.12c-.05,0-.09.05-.1.12a24,24,0,0,1-5.48,8.2c-.11.1-.11.44,0,.48,1.09.25,2-.61,2.94-1.42-.1.25-.2.5-.3.73-.46,1-1,1.91-1.5,2.8a17.36,17.36,0,0,1-3.44,4.24c-.16.15-.09.6.1.58a6.31,6.31,0,0,0,2.38-.76c.51-.27,1-.55,1.56-.89a19.93,19.93,0,0,1-3.42,4.21c-.11.11-.1.45,0,.48,1.09.26,2-.61,2.94-1.42-.09.25-.19.5-.3.74-.46,1-1,1.9-1.5,2.8a17.72,17.72,0,0,1-3.43,4.24c-.16.14-.1.59.1.57a5.88,5.88,0,0,0,2.37-.76,13.71,13.71,0,0,0,2-1.16c-.45.81-.92,1.59-1.41,2.31a29.11,29.11,0,0,1-3.16,4.16c-.19.19-.06.62.15.57a12.73,12.73,0,0,0,2.8-1.22,10.43,10.43,0,0,0,2.29-1.74c-.09.24-.17.49-.25.74a9.59,9.59,0,0,1-1,2.17c-.15.22,0,.58.19.52a6.71,6.71,0,0,0,2.15-1.47,13.23,13.23,0,0,0,1.62-1.84l3.07-.27a13,13,0,0,0,1.81,2.11,6.49,6.49,0,0,0,2.16,1.47c.18.06.33-.3.18-.52a9.16,9.16,0,0,1-.94-2.07c-.09-.28-.18-.56-.28-.84a10.2,10.2,0,0,0,2.29,1.74,12.2,12.2,0,0,0,2.79,1.22C582.73,388.49,582.87,388.06,582.67,387.87Z"/><path class="o" d="M580.61,384.16a23.32,23.32,0,0,1-2.43-3.39,19.25,19.25,0,0,1-1.16-2,11.43,11.43,0,0,0,1.48.94,4.67,4.67,0,0,0,1.93.68c.15,0,.21-.36.08-.48a15.21,15.21,0,0,1-2.66-3.46c-.41-.73-.81-1.51-1.17-2.32a7.26,7.26,0,0,1-.27-.7c.72.68,1.44,1.39,2.3,1.18.11,0,.12-.31,0-.4a16.39,16.39,0,0,1-2.68-3.51c.38.26.77.49,1.16.71a4.8,4.8,0,0,0,1.93.67c.15,0,.21-.36.08-.48a15.21,15.21,0,0,1-2.66-3.46c-.41-.73-.81-1.51-1.17-2.32-.1-.22-.19-.45-.28-.7.72.68,1.45,1.39,2.31,1.18.11,0,.11-.31,0-.4a20,20,0,0,1-4.31-6.82c0-.06,0-.11-.08-.1s-.07,0-.08.1a20,20,0,0,1-4.3,6.82c-.09.09-.09.37,0,.4.85.21,1.58-.5,2.31-1.18-.08.21-.15.42-.24.61-.36.82-.77,1.59-1.18,2.34a14.79,14.79,0,0,1-2.69,3.53c-.13.12-.08.49.07.48a4.63,4.63,0,0,0,1.87-.64,11.91,11.91,0,0,0,1.22-.73,16.88,16.88,0,0,1-2.67,3.5c-.09.09-.09.37,0,.4.85.21,1.58-.5,2.31-1.18-.08.21-.16.42-.24.61-.36.82-.77,1.59-1.18,2.33a14.43,14.43,0,0,1-2.7,3.54c-.12.12-.07.49.08.48a4.63,4.63,0,0,0,1.87-.64,11.23,11.23,0,0,0,1.54-1c-.35.68-.72,1.32-1.11,1.93a23.7,23.7,0,0,1-2.47,3.46c-.16.17,0,.52.11.47a9.23,9.23,0,0,0,2.2-1,7.92,7.92,0,0,0,1.79-1.45c-.06.21-.13.41-.19.62a7.57,7.57,0,0,1-.77,1.8c-.12.19,0,.49.15.44a5.18,5.18,0,0,0,1.69-1.23c.45-.44.88,2.34,1.27,1.77l2.42-.22c.43.67.91-2.05,1.41-1.55a5.21,5.21,0,0,0,1.7,1.23c.14.05.26-.25.14-.44a7.13,7.13,0,0,1-.74-1.72c-.07-.23-.14-.46-.22-.7a8,8,0,0,0,1.8,1.45,9.17,9.17,0,0,0,2.19,1C580.65,384.68,580.76,384.33,580.61,384.16Z"/></g><path class="w" d="M274.15,422.28c79.37-18.95,166.69-30.06,252.15-37.65,129-11.44,261-7,385.31,13.21l72.15,182.23c0,22-980.93,0-980.93,0v-94.2C94.35,466.2,183.94,443.81,274.15,422.28Z"/><g class="x"><path class="y" d="M435.6,387.38c-3.59-1-7-1.65-8-.64,3.51-3.35,11.09-2.62,16.89-2.56A146.27,146.27,0,0,1,505.07,398c28.29,13.13,61.18,33.8,85.08,66.57,1.4,1.92-.21,2.76-1.62,1L566.77,482c1.33,1.73.28,3.12-1.28,1.35-19.26-21.79-40-42.6-61.75-59.74-13.44-10.62-26.88-19.37-40.16-25.75a136.74,136.74,0,0,0-19-7.53C442.68,389.71,439.05,388.36,435.6,387.38Z"/></g><g class="l"><path class="w" d="M364.27,407.78c80.4-13.92,168.24-19.54,254-21.74,129.41-3.33,260.89,9.35,383.72,37.36l60.57,186.39c-1.38,22-979-61.56-979-61.56l5.91-94C182.06,440.33,272.88,423.61,364.27,407.78Z"/></g><g class="z"><path class="aa" d="M677.41,501.06c-5.93-5.77-10.88-13.84-16.06-21.18a125.54,125.54,0,0,1-7.7-12.51,80,80,0,0,0,9.82,5.87,32,32,0,0,0,12.78,4.19c1,.07,1.36-2.24.51-3a93.52,93.52,0,0,1-17.57-21.54c-2.73-4.58-5.39-9.43-7.79-14.47-.66-1.38-1.24-2.86-1.8-4.36,4.77,4.22,9.59,8.65,15.24,7.34.75-.17.78-1.95.2-2.49A105.15,105.15,0,0,1,647.28,417c2.53,1.65,5.15,3,7.7,4.4a32,32,0,0,0,12.79,4.19c1,.07,1.35-2.23.5-3a93.49,93.49,0,0,1-17.56-21.54c-2.74-4.58-5.4-9.43-7.8-14.47-.65-1.38-1.23-2.86-1.8-4.36,4.77,4.22,9.59,8.65,15.24,7.34.75-.17.78-2,.2-2.49-11.33-10.39-21-25.31-28.48-42.59-.06-.37-.29-.63-.54-.62s-.48.25-.54.62c-7.43,17.28-17.14,32.2-28.48,42.59-.58.53-.55,2.32.2,2.49,5.67,1.31,10.5-3.15,15.29-7.39-.5,1.32-1,2.61-1.58,3.83-2.39,5.1-5.08,9.9-7.78,14.56a91.43,91.43,0,0,1-17.85,22c-.85.77-.49,3.07.5,3a31.84,31.84,0,0,0,12.36-4c2.68-1.4,5.45-2.86,8.11-4.6A104.56,104.56,0,0,1,590,438.91c-.58.54-.55,2.32.2,2.49,5.67,1.31,10.51-3.15,15.29-7.39-.49,1.32-1,2.61-1.57,3.83-2.4,5.09-5.08,9.89-7.78,14.56a91.45,91.45,0,0,1-17.86,22c-.84.76-.49,3.07.51,3a31.92,31.92,0,0,0,12.36-4,74.24,74.24,0,0,0,10.2-6,138.34,138.34,0,0,1-7.33,12c-5.22,7.57-10.36,15.78-16.39,21.64-1,1-.31,3.22.76,2.93A63.43,63.43,0,0,0,593,497.67a51.82,51.82,0,0,0,11.89-9.06c-.43,1.29-.86,2.58-1.29,3.85a47.54,47.54,0,0,1-5.08,11.27c-.78,1.15,0,3,1,2.71,4-1.49,7.71-4.29,11.22-7.62a68.44,68.44,0,0,0,8.4-9.56l16-1.39a70.47,70.47,0,0,0,9.37,10.95,33.9,33.9,0,0,0,11.22,7.62c.93.34,1.75-1.56,1-2.71A44.36,44.36,0,0,1,651.7,493c-.49-1.46-1-2.92-1.45-4.38a53,53,0,0,0,11.86,9A62.15,62.15,0,0,0,676.65,504C677.72,504.28,678.43,502.05,677.41,501.06Z"/><path class="ab" d="M666.69,481.8c-4.65-4.81-8.54-11.53-12.61-17.65a106.7,106.7,0,0,1-6-10.42,61.33,61.33,0,0,0,7.71,4.89,24.16,24.16,0,0,0,10,3.49c.78.06,1.06-1.86.39-2.5a77.51,77.51,0,0,1-13.79-17.94c-2.14-3.82-4.24-7.86-6.12-12.06-.51-1.15-1-2.38-1.41-3.63,3.74,3.51,7.53,7.2,12,6.11.59-.14.62-1.62.16-2.07A86.37,86.37,0,0,1,643,411.78c2,1.37,4,2.52,6,3.66a24.28,24.28,0,0,0,10,3.5c.78.05,1.06-1.87.39-2.51a77.29,77.29,0,0,1-13.79-17.94c-2.14-3.82-4.23-7.86-6.11-12.06-.52-1.14-1-2.38-1.42-3.63,3.75,3.52,7.53,7.21,12,6.12.59-.14.61-1.63.16-2.08-8.9-8.65-16.53-21.08-22.36-35.47-.05-.31-.24-.53-.43-.53s-.38.22-.42.53c-5.84,14.39-13.46,26.82-22.36,35.47-.46.45-.43,1.94.15,2.08,4.45,1.09,8.25-2.63,12-6.15-.38,1.09-.78,2.17-1.23,3.18-1.88,4.25-4,8.25-6.11,12.13a75.37,75.37,0,0,1-14,18.35c-.67.64-.39,2.56.39,2.51a24.16,24.16,0,0,0,9.7-3.31A71.18,71.18,0,0,0,612,411.8,86.53,86.53,0,0,1,598.08,430c-.45.45-.43,1.93.16,2.07,4.45,1.1,8.25-2.62,12-6.15-.39,1.1-.78,2.18-1.23,3.19-1.88,4.24-4,8.24-6.11,12.13a75.59,75.59,0,0,1-14,18.35c-.66.64-.39,2.56.4,2.5a24,24,0,0,0,9.7-3.31,57.87,57.87,0,0,0,8-5,113.4,113.4,0,0,1-5.76,10c-4.09,6.31-8.13,13.15-12.86,18-.8.82-.24,2.67.6,2.44A49.17,49.17,0,0,0,600.38,479a40.73,40.73,0,0,0,9.33-7.55c-.33,1.08-.67,2.15-1,3.21a40.77,40.77,0,0,1-4,9.39c-.61,1,0,2.54.77,2.25a27,27,0,0,0,8.8-6.34c2.31-2.33,4.56,12.15,6.6,9.15l12.54-1.16c2.24,3.49,4.76-10.65,7.36-8a26.59,26.59,0,0,0,8.8,6.34c.73.29,1.38-1.3.77-2.25a37.76,37.76,0,0,1-3.84-8.94l-1.14-3.64a41.85,41.85,0,0,0,9.31,7.53,47.4,47.4,0,0,0,11.41,5.27C666.93,484.47,667.49,482.62,666.69,481.8Z"/></g><g class="ac"><path class="aa" d="M719.91,494.42c-3.61-3.51-6.62-8.42-9.78-12.89a76.13,76.13,0,0,1-4.68-7.62,48.1,48.1,0,0,0,6,3.58,19.59,19.59,0,0,0,7.79,2.55c.6,0,.82-1.37.3-1.83a57,57,0,0,1-10.69-13.11c-1.66-2.79-3.28-5.74-4.74-8.81-.4-.84-.76-1.74-1.1-2.65,2.9,2.57,5.84,5.26,9.28,4.47.45-.11.47-1.19.12-1.52a63.9,63.9,0,0,1-10.81-13.33c1.54,1,3.14,1.84,4.69,2.68a19.5,19.5,0,0,0,7.78,2.55c.61.05.82-1.36.3-1.83a57.05,57.05,0,0,1-10.69-13.11c-1.66-2.78-3.28-5.73-4.74-8.8-.4-.84-.75-1.74-1.09-2.66,2.9,2.57,5.83,5.27,9.27,4.47.45-.1.47-1.19.12-1.51-6.9-6.33-12.81-15.41-17.33-25.92,0-.23-.18-.39-.33-.39s-.3.16-.33.39c-4.52,10.51-10.43,19.59-17.33,25.92-.36.32-.34,1.41.12,1.51,3.45.8,6.39-1.92,9.3-4.49-.3.8-.61,1.58-1,2.32-1.45,3.11-3.09,6-4.73,8.87a55.57,55.57,0,0,1-10.87,13.4c-.51.47-.3,1.88.31,1.83a19.32,19.32,0,0,0,7.52-2.41c1.63-.85,3.32-1.74,4.94-2.8a63.47,63.47,0,0,1-10.8,13.31c-.35.33-.33,1.41.12,1.52,3.45.8,6.4-1.92,9.31-4.5-.3.8-.61,1.59-1,2.33-1.46,3.1-3.09,6-4.74,8.86a55.37,55.37,0,0,1-10.86,13.41c-.52.46-.3,1.87.3,1.83a19.55,19.55,0,0,0,7.53-2.42,44.69,44.69,0,0,0,6.2-3.68,81.14,81.14,0,0,1-4.46,7.31c-3.17,4.6-6.3,9.6-10,13.17-.62.6-.19,2,.46,1.79a39,39,0,0,0,8.85-3.85,31.78,31.78,0,0,0,7.24-5.52c-.26.79-.52,1.57-.79,2.35a29.07,29.07,0,0,1-3.09,6.85c-.47.7,0,1.86.59,1.65a21,21,0,0,0,6.83-4.64,41,41,0,0,0,5.11-5.81l9.72-.85a42.24,42.24,0,0,0,5.71,6.66,20.54,20.54,0,0,0,6.82,4.64c.57.21,1.07-.95.6-1.65a26.57,26.57,0,0,1-3-6.52c-.3-.89-.59-1.78-.88-2.67a32.16,32.16,0,0,0,7.21,5.51,38.33,38.33,0,0,0,8.85,3.85C720.09,496.38,720.53,495,719.91,494.42Z"/><path class="ab" d="M713.39,482.7c-2.84-2.93-5.21-7-7.68-10.75a62.8,62.8,0,0,1-3.68-6.34,37.94,37.94,0,0,0,4.69,3,14.81,14.81,0,0,0,6.11,2.12c.48,0,.65-1.13.24-1.52a46.92,46.92,0,0,1-8.39-10.92c-1.31-2.32-2.58-4.78-3.73-7.34-.31-.7-.59-1.45-.86-2.21,2.28,2.14,4.59,4.39,7.29,3.72.35-.08.37-1,.09-1.26a52.78,52.78,0,0,1-8.48-11.1c1.21.83,2.46,1.53,3.68,2.23a14.62,14.62,0,0,0,6.11,2.12c.47,0,.64-1.13.24-1.52a47.22,47.22,0,0,1-8.4-10.92c-1.3-2.32-2.57-4.78-3.72-7.34-.32-.7-.59-1.45-.86-2.21,2.28,2.14,4.58,4.39,7.28,3.73.36-.09.37-1,.1-1.27-5.42-5.26-10.06-12.83-13.61-21.59,0-.19-.14-.32-.26-.32s-.23.13-.26.32c-3.55,8.76-8.19,16.33-13.61,21.59-.28.27-.26,1.18.1,1.27,2.71.66,5-1.6,7.3-3.75-.23.67-.48,1.32-.75,1.94-1.14,2.58-2.43,5-3.72,7.38a45.58,45.58,0,0,1-8.53,11.17c-.4.39-.23,1.56.24,1.52a14.54,14.54,0,0,0,5.91-2,42.7,42.7,0,0,0,3.87-2.33,52.76,52.76,0,0,1-8.47,11.09c-.28.27-.27,1.18.09,1.26,2.71.67,5-1.59,7.31-3.74-.24.66-.48,1.32-.76,1.94-1.14,2.58-2.42,5-3.71,7.38A46.07,46.07,0,0,1,666,469.19c-.41.39-.24,1.56.24,1.52a14.5,14.5,0,0,0,5.9-2,36.26,36.26,0,0,0,4.88-3.07,69.38,69.38,0,0,1-3.51,6.09c-2.49,3.84-4.95,8-7.83,11-.48.5-.14,1.62.37,1.48A29.7,29.7,0,0,0,673,481a25.24,25.24,0,0,0,5.67-4.6c-.2.65-.4,1.31-.61,1.95a25.06,25.06,0,0,1-2.43,5.72c-.37.58,0,1.55.47,1.37a16.46,16.46,0,0,0,5.35-3.86c1.41-1.42,2.78,7.39,4,5.57l7.63-.71c1.37,2.12,6.76,6.5,8.34,8.12s-.39-9.87,1.5-9.12c.44.18.84-.79.47-1.37a23.06,23.06,0,0,1-2.34-5.44l-.69-2.22a25.42,25.42,0,0,0,5.66,4.59,29.12,29.12,0,0,0,6.95,3.2C713.53,484.32,713.87,483.2,713.39,482.7Z"/></g><g class="ad"><path class="aa" d="M603.43,493.69c-3.61-3.51-6.62-8.42-9.78-12.89a77.12,77.12,0,0,1-4.68-7.61,50,50,0,0,0,6,3.57,19.59,19.59,0,0,0,7.79,2.55c.6,0,.82-1.36.3-1.83a56.8,56.8,0,0,1-10.69-13.11c-1.66-2.79-3.28-5.74-4.74-8.8-.4-.84-.75-1.74-1.1-2.66,2.9,2.57,5.84,5.27,9.28,4.47.45-.11.47-1.19.12-1.51a64,64,0,0,1-10.81-13.34c1.54,1,3.14,1.85,4.69,2.68a19.34,19.34,0,0,0,7.78,2.55c.61.05.82-1.36.31-1.82a57,57,0,0,1-10.69-13.11c-1.67-2.79-3.28-5.74-4.75-8.81-.4-.84-.75-1.74-1.09-2.66,2.9,2.58,5.83,5.27,9.27,4.47.46-.1.48-1.19.12-1.51-6.89-6.32-12.81-15.4-17.33-25.92,0-.23-.18-.39-.33-.38s-.29.15-.33.38c-4.52,10.52-10.43,19.6-17.33,25.92-.35.32-.33,1.41.12,1.51,3.45.8,6.39-1.91,9.3-4.49-.3.8-.61,1.59-1,2.33-1.46,3.1-3.09,6-4.74,8.86a55.56,55.56,0,0,1-10.86,13.41c-.52.46-.3,1.87.3,1.82a19.32,19.32,0,0,0,7.52-2.41,55.85,55.85,0,0,0,4.94-2.8,63.8,63.8,0,0,1-10.8,13.32c-.35.32-.33,1.4.13,1.51,3.45.8,6.39-1.92,9.3-4.5-.3.8-.61,1.59-1,2.33-1.45,3.1-3.09,6-4.73,8.87a55.77,55.77,0,0,1-10.87,13.4c-.52.47-.3,1.87.31,1.83a19.33,19.33,0,0,0,7.52-2.42,45.37,45.37,0,0,0,6.21-3.68,83.5,83.5,0,0,1-4.46,7.31c-3.18,4.61-6.31,9.6-10,13.17-.62.61-.18,2,.47,1.79a39.41,39.41,0,0,0,8.85-3.85,31.73,31.73,0,0,0,7.23-5.52c-.26.79-.52,1.57-.79,2.35a28.36,28.36,0,0,1-3.09,6.86c-.47.69,0,1.85.6,1.64a21,21,0,0,0,6.82-4.63,42.34,42.34,0,0,0,5.12-5.82l9.71-.85a42.79,42.79,0,0,0,5.71,6.67,20.59,20.59,0,0,0,6.83,4.63c.56.21,1.06-.95.59-1.64a26.82,26.82,0,0,1-3-6.53c-.29-.89-.59-1.77-.88-2.66a32.46,32.46,0,0,0,7.22,5.5,38,38,0,0,0,8.85,3.85C603.62,495.65,604.05,494.3,603.43,493.69Z"/><path class="ab" d="M596.91,482c-2.84-2.93-5.2-7-7.68-10.75a62.8,62.8,0,0,1-3.68-6.34,37.94,37.94,0,0,0,4.69,3,14.71,14.71,0,0,0,6.11,2.12c.48,0,.65-1.13.24-1.52a47,47,0,0,1-8.39-10.92c-1.3-2.32-2.57-4.78-3.72-7.33-.32-.7-.59-1.46-.86-2.22,2.27,2.14,4.58,4.39,7.28,3.73.36-.09.37-1,.1-1.26a52.29,52.29,0,0,1-8.49-11.11c1.21.83,2.46,1.53,3.68,2.23a14.83,14.83,0,0,0,6.11,2.13c.47,0,.64-1.14.24-1.53a46.71,46.71,0,0,1-8.39-10.92c-1.31-2.32-2.58-4.78-3.73-7.34-.31-.69-.59-1.45-.86-2.21,2.28,2.15,4.58,4.39,7.28,3.73.36-.09.38-1,.1-1.27-5.42-5.26-10.06-12.83-13.61-21.59,0-.19-.14-.32-.26-.32s-.23.13-.26.32c-3.55,8.76-8.19,16.33-13.61,21.59-.27.28-.26,1.18.1,1.27,2.71.66,5-1.6,7.3-3.75-.23.67-.47,1.33-.75,1.94-1.14,2.59-2.42,5-3.72,7.38a45.58,45.58,0,0,1-8.53,11.17c-.4.39-.23,1.56.25,1.53a14.8,14.8,0,0,0,5.9-2,42.84,42.84,0,0,0,3.87-2.34,52.75,52.75,0,0,1-8.47,11.1c-.28.26-.26,1.17.1,1.26,2.7.66,5-1.6,7.3-3.75-.24.67-.48,1.32-.75,1.94-1.15,2.58-2.43,5-3.72,7.38a46.07,46.07,0,0,1-8.53,11.17c-.41.39-.24,1.56.24,1.52a14.5,14.5,0,0,0,5.9-2,33.81,33.81,0,0,0,4.88-3.07,69.34,69.34,0,0,1-3.5,6.09c-2.49,3.84-5,8-7.83,11-.49.5-.15,1.63.36,1.48a29.7,29.7,0,0,0,6.95-3.2,25,25,0,0,0,5.68-4.6c-.2.66-.41,1.31-.62,2a24.54,24.54,0,0,1-2.43,5.71c-.37.58,0,1.55.47,1.37a16.45,16.45,0,0,0,5.36-3.86c1.4-1.42,2.77,7.39,4,5.57l7.64-.7c1.36,2.12,2.9-6.49,4.47-4.87a16.31,16.31,0,0,0,5.36,3.86c.45.18.84-.79.47-1.37a22.88,22.88,0,0,1-2.34-5.44l-.69-2.21a25.65,25.65,0,0,0,5.66,4.58,29.09,29.09,0,0,0,6.95,3.2C597.05,483.6,597.39,482.47,596.91,482Z"/></g><path class="ae" d="M133.55,394.86a17.79,17.79,0,1,1-17.79-17.78A17.79,17.79,0,0,1,133.55,394.86Z"/><path class="ae" d="M260.9,443.6a17.79,17.79,0,1,1-17.79-17.79A17.78,17.78,0,0,1,260.9,443.6Z"/><path class="ae" d="M215.6,403.34a17.79,17.79,0,1,1-17.79-17.79A17.78,17.78,0,0,1,215.6,403.34Z"/><path class="ae" d="M192.31,385.55a17.79,17.79,0,1,1-17.79-17.78A17.8,17.8,0,0,1,192.31,385.55Z"/><path class="ae" d="M148.55,401.41a11.24,11.24,0,1,1-11.23-11.24A11.23,11.23,0,0,1,148.55,401.41Z"/><path class="ae" d="M163.35,390.17a11.24,11.24,0,1,1-11.23-11.23A11.23,11.23,0,0,1,163.35,390.17Z"/><path class="ae" d="M231.53,432.36a11.24,11.24,0,1,1-11.24-11.24A11.24,11.24,0,0,1,231.53,432.36Z"/><path class="ae" d="M226.84,419.37a11.24,11.24,0,1,1-11.24-11.24A11.24,11.24,0,0,1,226.84,419.37Z"/><path class="ae" d="M273.77,461.38a11.24,11.24,0,1,1-11.24-11.23A11.24,11.24,0,0,1,273.77,461.38Z"/><path class="ae" d="M285,477a11.24,11.24,0,1,1-11.24-11.24A11.24,11.24,0,0,1,285,477Z"/><path class="ae" d="M262.53,461.38,237.81,439.1l-12.48-8.49-13-11.24-14.55-16L180,385.55l-22.68,4.62-16.47,4.69-12.65,6.55-23-11.24-30,76.35,30,52.81s166.76,1.74,181.65,3.6c-4.08-4.21-9.89-41-9.89-41Z"/><g class="af"><path class="ag" d="M139.72,401.37a15.51,15.51,0,1,1-15.5-15.5A15.5,15.5,0,0,1,139.72,401.37Z"/><path class="ag" d="M250.72,443.85a15.5,15.5,0,1,1-15.5-15.5A15.5,15.5,0,0,1,250.72,443.85Z"/><path class="ag" d="M211.24,408.76a15.51,15.51,0,1,1-15.51-15.51A15.5,15.5,0,0,1,211.24,408.76Z"/><path class="ag" d="M190.93,393.25a15.5,15.5,0,1,1-15.5-15.5A15.51,15.51,0,0,1,190.93,393.25Z"/><path class="ag" d="M152.8,407.08a9.8,9.8,0,1,1-9.8-9.8A9.79,9.79,0,0,1,152.8,407.08Z"/><path class="ag" d="M165.7,397.28a9.8,9.8,0,1,1-9.8-9.79A9.8,9.8,0,0,1,165.7,397.28Z"/><circle class="ag" cx="215.32" cy="434.05" r="9.8"/><path class="ag" d="M221,422.73a9.8,9.8,0,1,1-9.79-9.8A9.79,9.79,0,0,1,221,422.73Z"/><path class="ag" d="M261.94,459.35a9.8,9.8,0,1,1-9.8-9.8A9.8,9.8,0,0,1,261.94,459.35Z"/><path class="ag" d="M271.73,473a9.8,9.8,0,1,1-9.79-9.79A9.79,9.79,0,0,1,271.73,473Z"/><path class="ag" d="M252.14,459.35l-21.55-19.43-10.87-7.4-11.31-9.79-12.68-14-15.5-15.51-19.77,4-14.35,4.09-11,5.71-20-9.8L88.91,463.83l26.14,46s145.36,1.52,158.34,3.14c-3.56-3.67-8.62-35.73-8.62-35.73Z"/></g><path class="ae" d="M27.07,396.81a17.78,17.78,0,1,0,23.8-8.15A17.78,17.78,0,0,0,27.07,396.81Z"/><path class="ae" d="M-21.59,362.58a17.79,17.79,0,0,0,8.14,23.8,17.78,17.78,0,0,0,23.8-8.14,17.79,17.79,0,0,0-8.14-23.8A17.79,17.79,0,0,0-21.59,362.58Z"/><path class="ae" d="M10.72,396.08a11.24,11.24,0,1,0,15-5.14A11.24,11.24,0,0,0,10.72,396.08Z"/><path class="ae" d="M2.37,379.48a11.24,11.24,0,1,0,15-5.15A11.24,11.24,0,0,0,2.37,379.48Z"/><path class="ae" d="M-118,399.77l32-9.13,14.94-2.13,16.59-4.38,20.11-8,23.8-8.14L7.77,382.12l12.72,11.46L29,405l25.58,0-6.67,81.76L-2.29,521S-152.8,449.2-167,444.31c5.51-2,26.92-32.45,26.92-32.45Z"/><g class="af"><path class="ag" d="M18.67,399.93a15.5,15.5,0,1,0,20.74-7.1A15.49,15.49,0,0,0,18.67,399.93Z"/><path class="ag" d="M-23.75,370.1a15.51,15.51,0,0,0,7.1,20.75,15.5,15.5,0,0,0,20.74-7.1A15.5,15.5,0,0,0-3,363,15.51,15.51,0,0,0-23.75,370.1Z"/><path class="ag" d="M4.41,399.3a9.8,9.8,0,1,0,13.11-4.48A9.8,9.8,0,0,0,4.41,399.3Z"/><path class="ag" d="M-2.86,384.83a9.79,9.79,0,1,0,13.11-4.49A9.79,9.79,0,0,0-2.86,384.83Z"/><path class="ag" d="M-107.8,402.52l27.9-8,13-1.86,14.47-3.82,17.53-7,20.74-7.1,16,12.32,11.09,10,7.39,10,22.3,0-5.81,71.26L-6.92,508.21s-131.2-62.61-143.56-66.87c4.8-1.72,23.46-28.29,23.46-28.29Z"/></g><path class="ah" d="M497.52,437.63C418.15,418.69,330.83,407.57,245.37,400c-128.94-11.45-261-7-385.31,13.2l-72.15,182.23c0,22,980.94,0,980.94,0V501.23C677.32,481.55,587.73,459.16,497.52,437.63Z"/><g class="ai"><path class="aj" d="M489.2,433c6.75-1.65,13.54-2.68,17.18-1-12.05-5.44-28.08-4.26-41-4.15-39.82.31-81.82,5.85-118.33,22.41-46.92,21.28-94.72,54.78-107.31,107.9-.74,3.12,3.9,4.48,4.85,1.59l69.13,26.6c-.82,2.81,3.25,5.06,4.55,2.19,15.89-35.32,36.43-69,63.61-96.84A201.7,201.7,0,0,1,439.65,450a193.28,193.28,0,0,1,33-12.21C476.25,436.78,482.7,434.6,489.2,433Z"/><path class="y" d="M496.67,434c6.75-1.65,13.54-2.68,17.18-1-12-5.44-28.08-4.26-41-4.15-39.82.31-81.82,5.85-118.33,22.41-46.91,21.28-94.72,54.78-107.31,107.9-.74,3.12,3.9,4.48,4.85,1.59l69.13,26.6c-.82,2.81,3.25,5.06,4.55,2.19,15.89-35.32,36.43-69,63.61-96.84A201.7,201.7,0,0,1,447.12,451a193.28,193.28,0,0,1,33-12.21C483.72,437.78,490.17,435.6,496.67,434Z"/></g><path class="ak" d="M71.28,524.71a6.08,6.08,0,0,0,4.56-2.88,14.23,14.23,0,0,0,1.73-2.94,18.32,18.32,0,0,0,1.29-3.66c.09-.34.27-1,.52-2,.13-.49.27-1,.44-1.69l.66-2.11a91,91,0,0,1,4.8-11.91A174.86,174.86,0,0,1,93.8,482c1.67-2.77,3.46-5.59,5.28-8.46s3.75-5.57,5.67-8.33a180.72,180.72,0,0,1,24.55-27.5l2.68-2.39,1.25-1.1,1.24-1L138.6,430c1.13-.94,2.11-1.52,2.74-2l1-.67c5.1-3.47,4.88-4-.62-1l-1.07.57c-.68.39-1.75.88-3,1.7l-4.52,2.85-1.36.85-1.38,1-3,2.13a183.6,183.6,0,0,0-28,25.51c-2.29,2.66-4.69,5.3-6.77,8s-4.23,5.37-6.23,8a182.23,182.23,0,0,0-10.57,15.43,98.71,98.71,0,0,0-6.61,12.82l-1,2.42c-.27.74-.49,1.42-.69,2-.39,1.18-.67,2-.77,2.4a18.67,18.67,0,0,0-.55,4.87,13.39,13.39,0,0,0,.8,4.11C68.06,523.43,69.56,524.72,71.28,524.71Z"/><path class="ak" d="M46.72,522.67c1.38.36,2.91-.3,4.26-1.66a14.37,14.37,0,0,0,3.26-5.81c.36-1.21,1.89-7.44,4.5-16A232.15,232.15,0,0,1,70,469.74c1.14-2.59,2.5-5,3.73-7.51s2.67-4.76,4-7L79.77,452c.68-1,1.31-2.12,2-3.06l2-2.82c.65-.92,1.28-1.8,2-2.59,1.33-1.59,2.5-3.1,3.63-4.35l3-3.17c.42-.43.78-.84,1.13-1.16s.64-.58.89-.79c.48-.44.74-.66.74-.66,3.82-3.42,3.6-3.81-.63-.77l-.82.59-1,.71c-.39.29-.79.66-1.26,1.05l-3.39,2.89c-1.28,1.15-2.63,2.56-4.16,4-.78.74-1.52,1.57-2.28,2.43L79.29,447c-.84.9-1.58,1.92-2.4,2.92L74.43,453c-1.57,2.18-3.23,4.42-4.81,6.78s-3.19,4.78-4.62,7.3a232.25,232.25,0,0,0-14.62,29.12c-3.54,8.5-5.69,14.79-6.07,16a13.27,13.27,0,0,0-.39,6.84C44.36,521,45.34,522.3,46.72,522.67Z"/><path class="ak" d="M27.27,519.59c1.75-.1,3.3-1.43,4.38-3.38A14.07,14.07,0,0,0,33,512.82a19.55,19.55,0,0,0,.72-4.13,136.17,136.17,0,0,1,2.3-19.49A171.71,171.71,0,0,1,47.6,452.84,168.28,168.28,0,0,1,56.79,435a135.93,135.93,0,0,1,9.82-14.35,98.44,98.44,0,0,1,8.13-9.18c1.05-1.05,1.89-1.86,2.48-2.37l.9-.82c2.35-2.07,3.54-3.12,3.4-3.32s-1.56.53-4.15,2.38l-1,.72c-.66.47-1.59,1.19-2.76,2.14a97.66,97.66,0,0,0-9.25,8.47,138.43,138.43,0,0,0-11.59,13.63,178.09,178.09,0,0,0-27.28,54.3,116.6,116.6,0,0,0-4.37,21.13,19.18,19.18,0,0,0,.25,4.73,14.49,14.49,0,0,0,1.32,3.85C23.9,518.49,25.53,519.69,27.27,519.59Z"/><path class="ak" d="M42.63,508.34a3.68,3.68,0,0,0,2.1-2.57,8.74,8.74,0,0,0,.43-2.06,11.75,11.75,0,0,0,0-2.38c0-.42-.17-1.67-.18-3.63a45.76,45.76,0,0,1,.72-7.7c1.06-6.21,3.79-14.16,7.33-21.69s7.6-14.78,10.72-20.14L69,439.28c1.92-3.29,1.64-3.47-.61-.4l-6.13,8.3c-3.67,5-8.53,11.82-12.9,19.18s-8.15,15.34-10,22.17a50.22,50.22,0,0,0-1.67,8.83,39.47,39.47,0,0,0-.11,4.5,11.51,11.51,0,0,0,.64,2.94A8.09,8.09,0,0,0,39.47,507C40.5,508.19,41.62,508.66,42.63,508.34Z"/><path class="ak" d="M63.09,506.29a3.56,3.56,0,0,0,3.17-1.35,8,8,0,0,0,1.32-1.85,14.22,14.22,0,0,0,1-2.39l.37-1.3c.09-.32.2-.69.31-1.11l.46-1.37c.34-1,.69-2.17,1.17-3.46s1.06-2.72,1.66-4.25a157.81,157.81,0,0,1,11-21C88,460.93,92.82,454,96.45,448.8l6.07-8.57c2.25-3.17,2-3.38-.58-.46L95,447.67c-4.16,4.78-9.72,11.22-15,18.14a159.38,159.38,0,0,0-13.48,20.52,81.39,81.39,0,0,0-5.36,12,10.46,10.46,0,0,0-.54,2.83,8.73,8.73,0,0,0,.25,2.47A3.2,3.2,0,0,0,63.09,506.29Z"/><path class="ak" d="M1.69,509.36c1.52-.25,2.77-1.57,3.57-3.4a17.53,17.53,0,0,0,1.1-6.78c0-.32-.05-1-.11-1.91a29.12,29.12,0,0,1-.14-3.65c0-1.48,0-3.21,0-5.15s.31-4.09.49-6.41c.89-9.27,3.83-21.13,8-32.53A282.1,282.1,0,0,1,27.93,419.1c2-4,3.75-7.38,5-9.71l1.92-3.65c2.59-4.91,2.18-5.16-.92-.54l-2.29,3.43c-1.45,2.19-3.53,5.34-6,9.17A284,284,0,0,0,9,447.16C3.52,458.4-.87,470.54-2.84,480.57c-.43,2.51-.84,4.86-1.21,7-.21,2.15-.39,4.08-.55,5.74a34.4,34.4,0,0,0-.19,4.12c0,1.07,0,1.81,0,2.18a13.15,13.15,0,0,0,2.23,7.34C-1.34,508.7.17,509.61,1.69,509.36Z"/><path class="ak" d="M-11.62,508.34c2.19-.46,3.9-2.43,4.92-5.08a18.19,18.19,0,0,0,1.16-4.5,24.69,24.69,0,0,0,.2-5.28c0-.47-.07-1.41-.17-2.76s-.18-3.13-.25-5.27a141,141,0,0,1,.61-16.79c1.22-13.49,5-30.88,10.58-47.58A356.63,356.63,0,0,1,23.8,376.54c2.88-5.88,5.41-10.7,7.22-14,.9-1.68,1.61-3,2.11-3.88s.76-1.37.76-1.37c4-7,3.39-7.4-1.31-.82l-.9,1.28c-.59.84-1.44,2.07-2.52,3.66-2.16,3.15-5.2,7.71-8.71,13.31A359.86,359.86,0,0,0-2.84,417.86c-7.51,16.51-13.31,34.27-16.07,48.79a145.48,145.48,0,0,0-2.41,18.49c-.14,2.42-.23,4.45-.21,6s0,2.65,0,3.19a24.83,24.83,0,0,0,1.14,6A17.6,17.6,0,0,0-18,505C-16.08,507.56-13.81,508.79-11.62,508.34Z"/><path class="ak" d="M15,522.67c1.45,0,2.79-1,3.78-2.68A11.07,11.07,0,0,0,20,517.13a17.31,17.31,0,0,0,.65-3.52c.07-.63,0-2.53.27-5.39.11-1.43.18-3.11.36-5s.41-3.94.65-6.16a199.94,199.94,0,0,1,6.54-31.18c.74-2.76,1.71-5.44,2.57-8.1s1.89-5.21,2.83-7.69,2-4.84,3-7,2-4.29,3-6.15,1.87-3.6,2.7-5.09L44.74,428l.84-1.41c.27-.39.49-.73.67-1l.57-.84c2.9-4.32,2.57-4.63-.81-.59l-.65.78c-.22.25-.48.57-.79.94l-1,1.32-2.69,3.61c-1,1.42-2.07,3.07-3.27,4.86s-2.35,3.81-3.65,5.93-2.46,4.45-3.78,6.83-2.49,4.93-3.7,7.54-2.43,5.27-3.48,8a200.49,200.49,0,0,0-10,31.54c-.47,2.3-.91,4.45-1.3,6.39s-.61,3.71-.86,5.22c-.52,3-.64,5.06-.71,5.73a15.45,15.45,0,0,0,.16,3.82,12.5,12.5,0,0,0,1,3.13C12.26,521.6,13.54,522.67,15,522.67Z"/><path class="ak" d="M160.32,519.59a3.59,3.59,0,0,0,3.49-.48,11.58,11.58,0,0,0,3.47-3.66c.51-.81,2.77-5.1,6.62-10.72A184.56,184.56,0,0,1,189,485.68c5.8-6.52,12-12.58,16.66-17s7.88-7.28,7.88-7.28c3-2.66,2.75-2.93-.47-.59,0,0-3.49,2.48-8.64,6.43s-12,9.38-18.53,15.38a184.67,184.67,0,0,0-17.43,18,107.77,107.77,0,0,0-8,10.7,9.94,9.94,0,0,0-1.6,5.11A3.3,3.3,0,0,0,160.32,519.59Z"/><path class="ak" d="M140.88,512.43a4.91,4.91,0,0,0,2.78-3.15,9.44,9.44,0,0,0,.73-2.47,9.31,9.31,0,0,0,.24-1.4c0-.24,0-.48.05-.73s0-.5.07-.76,0-.78,0-1.53.13-1.76.28-3a50.54,50.54,0,0,1,2.35-9.54c2.56-7.64,7.6-17.19,13.43-26.12s12.21-17.46,17-23.75L186,429.56c2.95-3.9,2.62-4.16-.71-.6l-9.12,9.54c-5.49,5.77-12.79,13.59-19.64,22.12s-13.16,17.86-16.88,26.14a56.66,56.66,0,0,0-3.8,10.95c-.33,1.5-.52,2.79-.68,3.78s-.15,1.71-.17,2.06,0,.69,0,1,.06.69.11,1a15.62,15.62,0,0,0,.35,1.9,11.54,11.54,0,0,0,1.46,3.07C138.16,512.2,139.59,512.84,140.88,512.43Z"/><path class="ak" d="M126.55,523.69c1.68,0,3.23-1.21,4.37-3.12a17.45,17.45,0,0,0,2.08-7.42,186.19,186.19,0,0,1,1.46-19.06c.3-2.55.83-5.26,1.27-8.12.25-1.43.59-2.87.9-4.35s.58-3,1-4.5c.81-3,1.53-6.16,2.54-9.25.49-1.55.94-3.13,1.47-4.69l1.64-4.66a208.12,208.12,0,0,1,15.41-32.61c2.42-4.28,4.65-7.7,6.15-10.13.75-1.22,1.4-2.14,1.82-2.78l.64-1c3.35-5,2.94-5.37-.93-.69l-.75.9c-.48.6-1.23,1.45-2.11,2.58-1.75,2.28-4.35,5.48-7.23,9.52a208.34,208.34,0,0,0-19.12,31.58l-2.2,4.64c-.71,1.55-1.35,3.14-2,4.7-1.38,3.12-2.47,6.31-3.63,9.39-.59,1.53-1,3.1-1.52,4.61s-1,3-1.4,4.49c-.77,3-1.6,5.78-2.19,8.46a142.46,142.46,0,0,0-3.32,20.17,15.16,15.16,0,0,0,1.46,8C123.38,522.46,124.87,523.69,126.55,523.69Z"/><path class="ak" d="M101,524.71c2.24-.26,3.78-3.67,3.43-7.63,0-.5-.28-2-.47-4.25s-.48-5.27-.79-8.77-.41-7.53-.57-11.78c0-2.13,0-4.32,0-6.53l0-3.34.11-3.35c.07-2.24.14-4.47.21-6.65s.3-4.33.44-6.4c.23-4.16.71-8,1.08-11.27.19-1.64.32-3.16.53-4.48s.38-2.47.53-3.42c.29-1.9.46-3,.46-3,.62-4,.28-4.11-.76-.17l-.78,2.93c-.24.93-.54,2.06-.88,3.37s-.64,2.8-1,4.42c-.71,3.25-1.6,7.06-2.27,11.21-.35,2.07-.76,4.21-1.11,6.4s-.6,4.45-.9,6.7l-.46,3.38c-.11,1.14-.21,2.26-.32,3.39-.21,2.25-.41,4.47-.62,6.64-.28,4.34-.46,8.47-.61,12.08s0,6.75,0,9.09.15,3.9.17,4.42C96.61,521.85,98.72,525,101,524.71Z"/><path class="ak" d="M113.24,508.34c1.56-.34,2.77-1.77,3.48-3.71a11.85,11.85,0,0,0,.68-3.28c0-.59.06-1.22.09-1.86a16.47,16.47,0,0,0-.08-2c0-.34-.12-1-.25-2l-.24-1.67c-.09-.63-.11-1.34-.18-2.1-.11-1.54-.25-3.34-.4-5.35s-.07-4.27-.11-6.68a169.42,169.42,0,0,1,4.36-34.44,293.29,293.29,0,0,1,9.59-32.91c1.53-4.4,2.88-8,3.84-10.57s1.51-4,1.51-4c2.06-5.34,1.62-5.55-1-.44,0,0-.73,1.36-1.93,3.8s-2.95,5.9-4.94,10.15a291.17,291.17,0,0,0-13.14,32.25c-4.1,12.2-7.09,25.12-8.15,35.52-.21,2.62-.4,5-.58,7.24s-.07,4.2-.09,5.9c0,.85,0,1.64,0,2.34s.08,1.34.12,1.88c.07,1.09.12,1.85.16,2.23a21.14,21.14,0,0,0,.33,2.18c.08.35.16.69.25,1s.23.65.36,1a13.68,13.68,0,0,0,1.81,3.2C110.08,507.83,111.69,508.68,113.24,508.34Z"/><path class="ak" d="M148,517.55a3.38,3.38,0,0,0,2.56-1.67,7.33,7.33,0,0,0,.94-1.73,11.67,11.67,0,0,0,.68-2.14,52,52,0,0,1,3.05-10.29,116.35,116.35,0,0,1,10-18.84c4.13-6.5,8.68-12.65,12.18-17.16s5.92-7.42,5.92-7.42c2.24-2.7,2-2.91-.49-.45,0,0-2.72,2.63-6.7,6.78s-9.17,9.84-14,16a117.36,117.36,0,0,0-12.34,18.56,48.92,48.92,0,0,0-4.44,11.33,10.19,10.19,0,0,0-.22,2.71,8.14,8.14,0,0,0,.52,2.28C146.21,516.82,147.07,517.55,148,517.55Z"/><path class="ak" d="M171.58,519.59a3.49,3.49,0,0,0,3.2-.61,7.81,7.81,0,0,0,1.56-1.41,14.24,14.24,0,0,0,1.47-1.92c.1-.19.31-.56.62-1.09a17.73,17.73,0,0,1,1.26-2c.55-.8,1.12-1.79,1.89-2.82s1.62-2.17,2.59-3.37a98.44,98.44,0,0,1,16.11-15.16,143.12,143.12,0,0,1,18.39-11.83c1.31-.7,2.51-1.35,3.58-1.9l2.8-1.39c.77-.39,1.38-.67,1.8-.86l.65-.3c3.32-1.53,3.22-1.83-.26-.65l-.68.23c-.44.14-1.09.36-1.9.67l-2.95,1.1c-1.13.43-2.4,1-3.79,1.53A142.84,142.84,0,0,0,198,487.83a100.58,100.58,0,0,0-18.51,14.24c-1.18,1.2-2.22,2.37-3.19,3.41s-1.7,2.1-2.4,2.95a22.49,22.49,0,0,0-1.62,2.2c-.38.6-.65,1-.78,1.21a9.69,9.69,0,0,0-1.14,2.52,8.61,8.61,0,0,0-.29,2.37C170.13,518.16,170.65,519.2,171.58,519.59Z"/><path class="ak" d="M809.87,545.83a6,6,0,0,1-4.55-2.88,14.53,14.53,0,0,1-1.74-2.94,18.32,18.32,0,0,1-1.28-3.66l-.53-2c-.13-.49-.27-1.06-.43-1.69s-.43-1.34-.67-2.11a91.6,91.6,0,0,0-4.79-11.91c-2.25-4.72-5.17-10-8.53-15.54-1.67-2.77-3.46-5.6-5.28-8.46s-3.75-5.57-5.67-8.33a180.17,180.17,0,0,0-24.54-27.5l-2.69-2.39c-.43-.38-.84-.75-1.25-1.1l-1.23-1-4.14-3.25c-1.12-.94-2.11-1.52-2.74-2l-1-.67c-5.1-3.48-4.88-4,.62-1l1.07.57c.69.39,1.75.88,3,1.7l4.52,2.85,1.35.85,1.38,1,3,2.14a184,184,0,0,1,28,25.5c2.29,2.66,4.69,5.31,6.77,8.05s4.23,5.37,6.23,8a179.91,179.91,0,0,1,10.57,15.43,98.71,98.71,0,0,1,6.61,12.82l1,2.42c.27.74.49,1.42.69,2,.39,1.17.67,2,.78,2.4a19.08,19.08,0,0,1,.54,4.87,13.1,13.1,0,0,1-.8,4.11C813.09,544.54,811.59,545.84,809.87,545.83Z"/><path class="ak" d="M720.83,540.71a3.59,3.59,0,0,1-3.49-.48,11.56,11.56,0,0,1-3.46-3.66c-.51-.81-2.78-5.1-6.62-10.72a186.13,186.13,0,0,0-15.08-19.05c-5.79-6.52-12-12.58-16.65-17s-7.89-7.28-7.89-7.28c-2.95-2.66-2.74-2.93.48-.6,0,0,3.48,2.49,8.63,6.44s12,9.38,18.53,15.38a184.9,184.9,0,0,1,17.44,18,108.66,108.66,0,0,1,8,10.7,10,10,0,0,1,1.61,5.11C722.3,539,721.81,540.21,720.83,540.71Z"/><path class="ak" d="M740.28,533.55a4.89,4.89,0,0,1-2.79-3.15,9.79,9.79,0,0,1-.73-2.48,10.34,10.34,0,0,1-.24-1.39c0-.24,0-.48,0-.73l-.06-.76c0-.26,0-.78,0-1.53s-.14-1.76-.29-3a50.54,50.54,0,0,0-2.35-9.54c-2.56-7.65-7.59-17.19-13.42-26.12s-12.21-17.46-17.05-23.75l-8.08-10.45c-2.94-3.9-2.61-4.16.71-.61l9.13,9.55c5.48,5.77,12.79,13.59,19.63,22.12s13.17,17.86,16.89,26.14a57.23,57.23,0,0,1,3.79,11c.33,1.5.53,2.79.68,3.78s.15,1.71.17,2.06,0,.69,0,1-.06.69-.1,1a17.78,17.78,0,0,1-.36,1.9,11.24,11.24,0,0,1-1.46,3.07C743,533.32,741.56,534,740.28,533.55Z"/><path class="ak" d="M754.6,544.81c-1.68,0-3.22-1.22-4.37-3.12a17.59,17.59,0,0,1-2.08-7.42,184.51,184.51,0,0,0-1.45-19.06c-.31-2.55-.84-5.26-1.28-8.12-.25-1.43-.59-2.87-.89-4.35s-.58-3-1-4.5c-.8-3-1.52-6.16-2.54-9.25-.49-1.55-.93-3.13-1.46-4.69l-1.65-4.66A205.49,205.49,0,0,0,722.47,447c-2.42-4.28-4.65-7.7-6.15-10.14-.75-1.21-1.4-2.13-1.81-2.77l-.65-1c-3.35-5-2.94-5.37.93-.7l.75.91c.48.6,1.23,1.45,2.11,2.58,1.75,2.28,4.35,5.48,7.24,9.52A210,210,0,0,1,744,477l2.2,4.64c.71,1.55,1.34,3.14,2,4.7,1.39,3.12,2.47,6.31,3.63,9.39.6,1.53,1,3.1,1.52,4.61s1,3,1.4,4.49c.77,3,1.61,5.78,2.19,8.46a141.6,141.6,0,0,1,3.33,20.17,15.16,15.16,0,0,1-1.46,8C757.77,543.58,756.28,544.81,754.6,544.81Z"/><path class="ak" d="M767.91,529.46c-1.55-.34-2.76-1.77-3.48-3.71a12.23,12.23,0,0,1-.68-3.28c0-.59,0-1.22-.08-1.86a16.43,16.43,0,0,1,.07-2c0-.34.12-1,.26-2,.07-.49.15-1,.23-1.67s.11-1.34.18-2.11c.12-1.54.25-3.33.4-5.34s.07-4.27.11-6.68c0-9.68-1.61-22.21-4.36-34.44A291.2,291.2,0,0,0,751,433.51c-1.53-4.4-2.88-8-3.83-10.57s-1.51-4-1.51-4c-2.07-5.34-1.62-5.55,1-.45,0,0,.72,1.37,1.92,3.8s3,5.91,5,10.16a293.26,293.26,0,0,1,13.13,32.25c4.1,12.2,7.1,25.12,8.15,35.52.21,2.61.4,5,.58,7.24s.07,4.19.1,5.9c0,.85,0,1.63,0,2.34s-.08,1.33-.11,1.88c-.07,1.09-.13,1.85-.17,2.23a18.73,18.73,0,0,1-.33,2.18q-.11.53-.24,1c-.12.33-.24.65-.37,1a13.55,13.55,0,0,1-1.81,3.21C771.07,529,769.46,529.79,767.91,529.46Z"/><path class="ak" d="M733.11,538.67a3.33,3.33,0,0,1-2.55-1.68,7.08,7.08,0,0,1-.95-1.72,11.92,11.92,0,0,1-.68-2.14,51.08,51.08,0,0,0-3-10.29,115.16,115.16,0,0,0-10-18.84c-4.13-6.5-8.68-12.65-12.18-17.16s-5.92-7.42-5.92-7.42c-2.24-2.7-2-2.91.5-.45,0,0,2.72,2.63,6.69,6.78s9.18,9.84,14,16a117.36,117.36,0,0,1,12.34,18.56,49.88,49.88,0,0,1,4.45,11.32,9.87,9.87,0,0,1,.21,2.72,8.08,8.08,0,0,1-.51,2.27C734.94,537.94,734.08,538.67,733.11,538.67Z"/><path class="ak" d="M709.57,540.71a3.47,3.47,0,0,1-3.19-.61,7.3,7.3,0,0,1-1.56-1.41,12.77,12.77,0,0,1-1.47-1.92l-.62-1.1a22.39,22.39,0,0,0-1.26-2c-.56-.8-1.12-1.79-1.9-2.82s-1.62-2.17-2.59-3.37a97.93,97.93,0,0,0-16.1-15.16,143.86,143.86,0,0,0-18.4-11.83c-1.31-.7-2.5-1.35-3.58-1.9l-2.79-1.39c-.77-.39-1.39-.67-1.81-.86l-.64-.3c-3.33-1.53-3.22-1.83.26-.65l.67.23c.45.14,1.09.36,1.9.67l3,1.1c1.13.43,2.4,1,3.8,1.53A143.33,143.33,0,0,1,683.14,509a101,101,0,0,1,18.52,14.24c1.17,1.19,2.21,2.37,3.18,3.41s1.71,2.1,2.4,2.95a22.49,22.49,0,0,1,1.62,2.2c.39.59.65,1,.78,1.21a9.73,9.73,0,0,1,1.15,2.52,9,9,0,0,1,.28,2.37C711,539.28,710.51,540.32,709.57,540.71Z"/><path class="ak" d="M582.62,591a6.11,6.11,0,0,1-3.58-4,14.46,14.46,0,0,1-.85-3.31,18.66,18.66,0,0,1-.23-3.87c0-.35,0-1.05,0-2.05,0-.51,0-1.1.06-1.75s0-1.41-.06-2.21A92.49,92.49,0,0,0,576.68,561c-.86-5.15-2.2-11-3.9-17.29-.84-3.12-1.78-6.32-2.74-9.58s-2.07-6.39-3.15-9.58a180.76,180.76,0,0,0-16-33.2l-1.92-3c-.31-.48-.6-1-.89-1.41s-.62-.86-.92-1.27c-1.19-1.65-2.22-3.09-3.08-4.27s-1.61-2-2.09-2.66l-.76-.92c-3.94-4.75-3.6-5.16.88-.8l.86.85a34.19,34.19,0,0,1,2.39,2.45l3.56,4,1.07,1.2,1,1.33,2.27,2.87A183.77,183.77,0,0,1,573.18,522c1.46,3.18,3,6.39,4.28,9.6s2.58,6.32,3.77,9.44a180.51,180.51,0,0,1,5.9,17.76,98.37,98.37,0,0,1,2.81,14.14c.1,1,.2,1.82.28,2.6s.08,1.5.11,2.11c.06,1.24.1,2.09.09,2.52a19,19,0,0,1-.82,4.83,13.51,13.51,0,0,1-1.91,3.74C586.07,590.69,584.27,591.52,582.62,591Z"/><path class="ak" d="M606.8,595.85c-1.43,0-2.72-1.09-3.64-2.76a14.32,14.32,0,0,1-1.53-6.49c0-1.27.24-7.68.09-16.59A232.75,232.75,0,0,0,599,538.55c-.38-2.8-1-5.53-1.51-8.24s-1.24-5.31-1.87-7.85c-.37-1.26-.74-2.49-1.09-3.69s-.68-2.39-1.11-3.5L592.28,512c-.37-1.06-.74-2.08-1.17-3-.84-1.9-1.55-3.68-2.29-5.19l-2-3.87c-.28-.54-.52-1-.76-1.43l-.63-1-.53-.84c-2.74-4.33-2.42-4.65.81-.56,0,0,.22.27.62.79l.76.95c.28.39.57.85.91,1.36l2.47,3.72c.91,1.46,1.81,3.18,2.88,5,.54.92,1,1.92,1.51,3l1.55,3.22c.57,1.1,1,2.27,1.51,3.46s1,2.42,1.51,3.66c.91,2.53,1.88,5.15,2.75,7.85s1.74,5.47,2.42,8.29a230.79,230.79,0,0,1,6,32c1.06,9.15,1.39,15.78,1.41,17.09a13.29,13.29,0,0,1-1.51,6.68C609.53,594.86,608.23,595.88,606.8,595.85Z"/><path class="ak" d="M626.33,598.27c-1.65-.58-2.76-2.29-3.27-4.46a13.63,13.63,0,0,1-.39-3.65,18.56,18.56,0,0,1,.45-4.16,136.85,136.85,0,0,0,3.16-19.37,170.87,170.87,0,0,0-1-38.13,168.35,168.35,0,0,0-3.91-19.68,134.49,134.49,0,0,0-5.47-16.5,97.26,97.26,0,0,0-5.29-11.07c-.71-1.29-1.29-2.3-1.72-3l-.64-1c-1.68-2.64-2.54-4-2.35-4.13s1.35.94,3.33,3.43l.76,1c.51.62,1.2,1.58,2.06,2.82A96.75,96.75,0,0,1,618.56,491a139.07,139.07,0,0,1,7.37,16.3,177.68,177.68,0,0,1,11.22,59.72,117,117,0,0,1-1.63,21.51,19.13,19.13,0,0,1-1.54,4.49,14.42,14.42,0,0,1-2.34,3.33C629.88,598.13,628,598.85,626.33,598.27Z"/><path class="ak" d="M595.58,575.59a3.56,3.56,0,0,1-2.67-2.17,7.82,7.82,0,0,1-.75-2.14,14.57,14.57,0,0,1-.36-2.59v-1.36c0-.33,0-.71,0-1.15s0-.91-.07-1.44c0-1-.07-2.28-.17-3.65s-.27-2.91-.42-4.54a159.28,159.28,0,0,0-4.74-23.2c-2.24-8.23-5-16.24-7-22.22l-3.47-9.92c-1.28-3.66-1-3.79.69-.28l4.49,9.51c2.67,5.74,6.23,13.47,9.36,21.57a159.58,159.58,0,0,1,7.29,23.44,80.83,80.83,0,0,1,1.83,13,10.23,10.23,0,0,1-.26,2.87,9.2,9.2,0,0,1-.92,2.31A3.2,3.2,0,0,1,595.58,575.59Z"/><path class="ak" d="M653.75,595.5c-1.39-.66-2.23-2.27-2.5-4.26a17.57,17.57,0,0,1,.83-6.82c.09-.3.31-.92.63-1.8a31.4,31.4,0,0,0,1.14-3.47c.4-1.42.87-3.09,1.4-4.95s.83-4,1.3-6.3c1.71-9.16,2.15-21.37,1.32-33.47a286.05,286.05,0,0,0-4.41-32.93c-.83-4.44-1.57-8.12-2.1-10.7l-.83-4c-1.13-5.44-.67-5.57,1-.27,0,0,.46,1.42,1.25,3.93s1.93,6.1,3.22,10.45a283.74,283.74,0,0,1,7.9,32.83c2.13,12.3,3,25.19,2.12,35.36-.27,2.54-.53,4.91-.76,7-.4,2.13-.75,4-1,5.67a34.73,34.73,0,0,1-1,4c-.29,1-.49,1.75-.61,2.1a13.15,13.15,0,0,1-4.16,6.44C656.84,595.71,655.14,596.16,653.75,595.5Z"/><path class="ak" d="M666.82,598.19c-2-1-3.07-3.41-3.32-6.24a18.27,18.27,0,0,1,.13-4.64,25,25,0,0,1,1.26-5.14c.15-.44.46-1.33.92-2.6s1.05-3,1.7-5a140.61,140.61,0,0,0,4.06-16.31c2.55-13.31,3.75-31,3-48.65a357.83,357.83,0,0,0-5.35-47.88c-1.14-6.44-2.25-11.78-3.06-15.49-.4-1.87-.73-3.32-1-4.31s-.34-1.52-.34-1.52c-1.88-7.83-1.22-8.06,1.48-.43,0,0,.18.51.51,1.48s.82,2.38,1.41,4.2c1.21,3.63,2.88,8.85,4.7,15.2a360.27,360.27,0,0,1,10.46,47.94c2.66,17.94,3.33,36.61,2,51.33a144.15,144.15,0,0,1-2.79,18.43c-.53,2.37-1,4.34-1.46,5.84s-.73,2.55-.9,3.06a24.13,24.13,0,0,1-2.75,5.47,17.47,17.47,0,0,1-3.56,3.84C671.33,598.68,668.8,599.23,666.82,598.19Z"/><path class="ak" d="M637.29,604.61c-1.39-.4-2.39-1.77-2.89-3.62a11.4,11.4,0,0,1-.36-3.07,17.27,17.27,0,0,1,.36-3.56c.1-.62.66-2.44,1.22-5.26.29-1.4.69-3,1-4.88s.69-3.89,1.08-6.09a200.64,200.64,0,0,0,2.32-31.78c.05-2.86-.15-5.69-.23-8.49s-.39-5.53-.6-8.18-.56-5.18-.93-7.58-.69-4.67-1.14-6.73-.8-4-1.19-5.64-.81-3.1-1.12-4.29l-.42-1.59c-.15-.45-.27-.84-.37-1.15l-.31-1c-1.6-4.95-1.2-5.16.93-.35,0,0,.15.32.42.93l.49,1.12.59,1.55c.44,1.17,1,2.58,1.59,4.21s1.14,3.52,1.8,5.57,1.2,4.32,1.87,6.7,1.14,5,1.75,7.61,1,5.44,1.48,8.27.88,5.74,1.13,8.66a201.71,201.71,0,0,1,.9,33.07c-.19,2.35-.36,4.53-.52,6.51s-.44,3.74-.61,5.25c-.34,3-.79,5-.9,5.7a14.89,14.89,0,0,1-1.22,3.63,12.15,12.15,0,0,1-1.87,2.72C640.21,604.35,638.68,605,637.29,604.61Z"/><path class="ak" d="M498.46,561.53a3.6,3.6,0,0,1-3.22-1.43,11.34,11.34,0,0,1-2.32-4.48c-.27-.91-1.26-5.66-3.4-12.13A187.2,187.2,0,0,0,480.29,521c-3.77-7.86-8-15.39-11.31-21s-5.57-9.17-5.57-9.17c-2.1-3.37-1.83-3.57.62-.44,0,0,2.67,3.35,6.53,8.57s8.91,12.33,13.56,19.9A184.8,184.8,0,0,1,495.91,541a109.49,109.49,0,0,1,4.7,12.49,9.9,9.9,0,0,1,.13,5.35A3.33,3.33,0,0,1,498.46,561.53Z"/><path class="ak" d="M519.13,560a4.84,4.84,0,0,1-1.81-3.79,16.57,16.57,0,0,1,.14-4c0-.24.09-.47.15-.71l.15-.75c.06-.25.19-.76.39-1.48s.36-1.73.55-2.94a50.34,50.34,0,0,0,.37-9.81c-.35-8.06-2.55-18.62-5.69-28.82s-6.91-20.15-9.83-27.53l-4.87-12.27c-1.76-4.57-1.36-4.72.85-.39l6.13,11.7c3.68,7.06,8.55,16.59,12.77,26.68s7.72,20.8,9,29.79a57.47,57.47,0,0,1,.62,11.57c-.1,1.53-.27,2.83-.39,3.81s-.33,1.69-.41,2-.16.68-.26,1-.25.65-.38,1a17.44,17.44,0,0,1-.87,1.73,11.42,11.42,0,0,1-2.25,2.54C521.8,560.54,520.25,560.76,519.13,560Z"/><path class="ak" d="M529.79,574.79c-1.62-.46-2.77-2-3.34-4.2a17.43,17.43,0,0,1,0-7.71,185.37,185.37,0,0,0,3.86-18.72c.41-2.54.65-5.28,1-8.16.15-1.44.22-2.92.34-4.42s.27-3,.28-4.6c.07-3.12.24-6.34.12-9.6,0-1.62,0-3.26-.11-4.91l-.3-4.93a207.33,207.33,0,0,0-5.8-35.6c-1.15-4.78-2.35-8.68-3.12-11.44-.38-1.37-.75-2.43-1-3.16s-.36-1.12-.36-1.12c-1.82-5.77-1.34-6,1.09-.41,0,0,.16.38.47,1.08s.78,1.73,1.31,3.07c1.06,2.67,2.67,6.46,4.33,11.14a209.53,209.53,0,0,1,9.66,35.63l.83,5.07c.26,1.69.42,3.39.64,5.08.47,3.37.63,6.74.89,10,.15,1.64.13,3.26.19,4.85s.12,3.17.11,4.7c-.08,3.06-.06,6-.23,8.74a141.33,141.33,0,0,1-2.38,20.31,15.08,15.08,0,0,1-3.62,7.31C533.17,574.49,531.4,575.26,529.79,574.79Z"/><path class="ak" d="M546.82,563.71c-1.4-.75-2.17-2.46-2.33-4.53a12.11,12.11,0,0,1,.26-3.33l.43-1.81a15.88,15.88,0,0,1,.62-1.88c.12-.31.39-.93.79-1.83l.69-1.54c.26-.58.47-1.25.75-2,.54-1.45,1.16-3.14,1.86-5s1.25-4.08,2-6.39a168.8,168.8,0,0,0,5.32-34.3,295.27,295.27,0,0,0-.12-34.28c-.26-4.65-.56-8.52-.78-11.22s-.35-4.23-.35-4.23c-.51-5.71,0-5.79,1.08-.15,0,0,.32,1.51.8,4.18s1.21,6.49,2,11.12a293.53,293.53,0,0,1,3.72,34.63c.57,12.86-.12,26.1-2,36.39-.53,2.57-1,5-1.45,7.11s-1.09,4.06-1.53,5.7c-.24.82-.42,1.59-.65,2.25s-.44,1.26-.63,1.78c-.36,1-.63,1.75-.77,2.1a17.41,17.41,0,0,1-.92,2c-.17.31-.34.62-.52.91s-.4.57-.61.83a13.55,13.55,0,0,1-2.63,2.58C550,564.09,548.21,564.47,546.82,563.71Z"/><path class="ak" d="M510.83,563a3.33,3.33,0,0,1-2-2.31,7.6,7.6,0,0,1-.43-1.92,11.77,11.77,0,0,1-.06-2.24,51.84,51.84,0,0,0-.09-10.73,116.57,116.57,0,0,0-4.39-20.87c-2.18-7.38-4.85-14.55-7-19.86s-3.65-8.76-3.65-8.76c-1.4-3.21-1.14-3.35.6-.3,0,0,1.89,3.28,4.56,8.37s6.1,12,9.09,19.27a117.6,117.6,0,0,1,6.73,21.24A48.65,48.65,0,0,1,515.37,557a9.66,9.66,0,0,1-.54,2.67,7.93,7.93,0,0,1-1.12,2C512.79,562.76,511.76,563.23,510.83,563Z"/><path class="ak" d="M487.64,558.42a3.47,3.47,0,0,1-2.9-1.47,7.23,7.23,0,0,1-1.11-1.79,12.71,12.71,0,0,1-.89-2.25c-.05-.21-.14-.62-.29-1.22a19.72,19.72,0,0,0-.65-2.31c-.31-.93-.58-2-1-3.24s-1-2.53-1.56-3.95a98,98,0,0,0-11.29-19,143.64,143.64,0,0,0-14.41-16.44c-1.07-1-2-2-2.92-2.82l-2.3-2.1c-.64-.59-1.15-1-1.5-1.33l-.54-.47c-2.77-2.38-2.59-2.64.43-.55l.59.41c.38.26.95.65,1.64,1.17l2.53,1.87c1,.73,2,1.59,3.23,2.52A144.2,144.2,0,0,1,471,520.59a101.52,101.52,0,0,1,13.86,18.8c.8,1.48,1.47,2.9,2.12,4.16s1.06,2.49,1.49,3.5a22.31,22.31,0,0,1,.95,2.56l.42,1.38a10,10,0,0,1,.4,2.74,8.62,8.62,0,0,1-.38,2.35C489.43,557.44,488.65,558.3,487.64,558.42Z"/></g></g></svg>